%TF.GenerationSoftware,KiCad,Pcbnew,8.0.2*%
%TF.CreationDate,2024-06-26T22:47:50+07:00*%
%TF.ProjectId,resistor_pitch_15mm_Panel,72657369-7374-46f7-925f-70697463685f,rev?*%
%TF.SameCoordinates,Original*%
%TF.FileFunction,Legend,Top*%
%TF.FilePolarity,Positive*%
%FSLAX46Y46*%
G04 Gerber Fmt 4.6, Leading zero omitted, Abs format (unit mm)*
G04 Created by KiCad (PCBNEW 8.0.2) date 2024-06-26 22:47:50*
%MOMM*%
%LPD*%
G01*
G04 APERTURE LIST*
%ADD10C,0.600000*%
%ADD11C,0.120000*%
%ADD12C,4.000000*%
%ADD13C,1.600000*%
%ADD14O,1.600000X1.600000*%
G04 APERTURE END LIST*
D10*
X53350000Y-26500500D02*
G75*
G02*
X48650000Y-26500500I-2350000J0D01*
G01*
X48650000Y-26500500D02*
G75*
G02*
X53350000Y-26500500I2350000J0D01*
G01*
X29350000Y-11500500D02*
G75*
G02*
X24650000Y-11500500I-2350000J0D01*
G01*
X24650000Y-11500500D02*
G75*
G02*
X29350000Y-11500500I2350000J0D01*
G01*
X13350000Y-59500500D02*
G75*
G02*
X8650000Y-59500500I-2350000J0D01*
G01*
X8650000Y-59500500D02*
G75*
G02*
X13350000Y-59500500I2350000J0D01*
G01*
X53350000Y-74500500D02*
G75*
G02*
X48650000Y-74500500I-2350000J0D01*
G01*
X48650000Y-74500500D02*
G75*
G02*
X53350000Y-74500500I2350000J0D01*
G01*
X29350000Y-50500500D02*
G75*
G02*
X24650000Y-50500500I-2350000J0D01*
G01*
X24650000Y-50500500D02*
G75*
G02*
X29350000Y-50500500I2350000J0D01*
G01*
X93350000Y-74500500D02*
G75*
G02*
X88650000Y-74500500I-2350000J0D01*
G01*
X88650000Y-74500500D02*
G75*
G02*
X93350000Y-74500500I2350000J0D01*
G01*
X69350000Y-26500500D02*
G75*
G02*
X64650000Y-26500500I-2350000J0D01*
G01*
X64650000Y-26500500D02*
G75*
G02*
X69350000Y-26500500I2350000J0D01*
G01*
X77350000Y-74500500D02*
G75*
G02*
X72650000Y-74500500I-2350000J0D01*
G01*
X72650000Y-74500500D02*
G75*
G02*
X77350000Y-74500500I2350000J0D01*
G01*
X77350000Y-11500500D02*
G75*
G02*
X72650000Y-11500500I-2350000J0D01*
G01*
X72650000Y-11500500D02*
G75*
G02*
X77350000Y-11500500I2350000J0D01*
G01*
X93350000Y-59500500D02*
G75*
G02*
X88650000Y-59500500I-2350000J0D01*
G01*
X88650000Y-59500500D02*
G75*
G02*
X93350000Y-59500500I2350000J0D01*
G01*
X85350000Y-26500500D02*
G75*
G02*
X80650000Y-26500500I-2350000J0D01*
G01*
X80650000Y-26500500D02*
G75*
G02*
X85350000Y-26500500I2350000J0D01*
G01*
X69350000Y-35500500D02*
G75*
G02*
X64650000Y-35500500I-2350000J0D01*
G01*
X64650000Y-35500500D02*
G75*
G02*
X69350000Y-35500500I2350000J0D01*
G01*
X61350000Y-35500500D02*
G75*
G02*
X56650000Y-35500500I-2350000J0D01*
G01*
X56650000Y-35500500D02*
G75*
G02*
X61350000Y-35500500I2350000J0D01*
G01*
X37350000Y-74500500D02*
G75*
G02*
X32650000Y-74500500I-2350000J0D01*
G01*
X32650000Y-74500500D02*
G75*
G02*
X37350000Y-74500500I2350000J0D01*
G01*
X85350000Y-11500500D02*
G75*
G02*
X80650000Y-11500500I-2350000J0D01*
G01*
X80650000Y-11500500D02*
G75*
G02*
X85350000Y-11500500I2350000J0D01*
G01*
X13350000Y-35500500D02*
G75*
G02*
X8650000Y-35500500I-2350000J0D01*
G01*
X8650000Y-35500500D02*
G75*
G02*
X13350000Y-35500500I2350000J0D01*
G01*
X45350000Y-11500500D02*
G75*
G02*
X40650000Y-11500500I-2350000J0D01*
G01*
X40650000Y-11500500D02*
G75*
G02*
X45350000Y-11500500I2350000J0D01*
G01*
X21350000Y-74500500D02*
G75*
G02*
X16650000Y-74500500I-2350000J0D01*
G01*
X16650000Y-74500500D02*
G75*
G02*
X21350000Y-74500500I2350000J0D01*
G01*
X45350000Y-50500500D02*
G75*
G02*
X40650000Y-50500500I-2350000J0D01*
G01*
X40650000Y-50500500D02*
G75*
G02*
X45350000Y-50500500I2350000J0D01*
G01*
X93350000Y-11500500D02*
G75*
G02*
X88650000Y-11500500I-2350000J0D01*
G01*
X88650000Y-11500500D02*
G75*
G02*
X93350000Y-11500500I2350000J0D01*
G01*
X29350000Y-26500500D02*
G75*
G02*
X24650000Y-26500500I-2350000J0D01*
G01*
X24650000Y-26500500D02*
G75*
G02*
X29350000Y-26500500I2350000J0D01*
G01*
X5350000Y-35500500D02*
G75*
G02*
X650000Y-35500500I-2350000J0D01*
G01*
X650000Y-35500500D02*
G75*
G02*
X5350000Y-35500500I2350000J0D01*
G01*
X5350000Y-11500500D02*
G75*
G02*
X650000Y-11500500I-2350000J0D01*
G01*
X650000Y-11500500D02*
G75*
G02*
X5350000Y-11500500I2350000J0D01*
G01*
X85350000Y-59500500D02*
G75*
G02*
X80650000Y-59500500I-2350000J0D01*
G01*
X80650000Y-59500500D02*
G75*
G02*
X85350000Y-59500500I2350000J0D01*
G01*
X77350000Y-35500500D02*
G75*
G02*
X72650000Y-35500500I-2350000J0D01*
G01*
X72650000Y-35500500D02*
G75*
G02*
X77350000Y-35500500I2350000J0D01*
G01*
X69350000Y-50500500D02*
G75*
G02*
X64650000Y-50500500I-2350000J0D01*
G01*
X64650000Y-50500500D02*
G75*
G02*
X69350000Y-50500500I2350000J0D01*
G01*
X21350000Y-35500500D02*
G75*
G02*
X16650000Y-35500500I-2350000J0D01*
G01*
X16650000Y-35500500D02*
G75*
G02*
X21350000Y-35500500I2350000J0D01*
G01*
X21350000Y-11500500D02*
G75*
G02*
X16650000Y-11500500I-2350000J0D01*
G01*
X16650000Y-11500500D02*
G75*
G02*
X21350000Y-11500500I2350000J0D01*
G01*
X37350000Y-11500500D02*
G75*
G02*
X32650000Y-11500500I-2350000J0D01*
G01*
X32650000Y-11500500D02*
G75*
G02*
X37350000Y-11500500I2350000J0D01*
G01*
X93350000Y-50500500D02*
G75*
G02*
X88650000Y-50500500I-2350000J0D01*
G01*
X88650000Y-50500500D02*
G75*
G02*
X93350000Y-50500500I2350000J0D01*
G01*
X53350000Y-35500500D02*
G75*
G02*
X48650000Y-35500500I-2350000J0D01*
G01*
X48650000Y-35500500D02*
G75*
G02*
X53350000Y-35500500I2350000J0D01*
G01*
X45350000Y-59500500D02*
G75*
G02*
X40650000Y-59500500I-2350000J0D01*
G01*
X40650000Y-59500500D02*
G75*
G02*
X45350000Y-59500500I2350000J0D01*
G01*
X93350000Y-35500500D02*
G75*
G02*
X88650000Y-35500500I-2350000J0D01*
G01*
X88650000Y-35500500D02*
G75*
G02*
X93350000Y-35500500I2350000J0D01*
G01*
X5350000Y-59500500D02*
G75*
G02*
X650000Y-59500500I-2350000J0D01*
G01*
X650000Y-59500500D02*
G75*
G02*
X5350000Y-59500500I2350000J0D01*
G01*
X45350000Y-74500500D02*
G75*
G02*
X40650000Y-74500500I-2350000J0D01*
G01*
X40650000Y-74500500D02*
G75*
G02*
X45350000Y-74500500I2350000J0D01*
G01*
X61350000Y-26500500D02*
G75*
G02*
X56650000Y-26500500I-2350000J0D01*
G01*
X56650000Y-26500500D02*
G75*
G02*
X61350000Y-26500500I2350000J0D01*
G01*
X5350000Y-26500500D02*
G75*
G02*
X650000Y-26500500I-2350000J0D01*
G01*
X650000Y-26500500D02*
G75*
G02*
X5350000Y-26500500I2350000J0D01*
G01*
X85350000Y-74500500D02*
G75*
G02*
X80650000Y-74500500I-2350000J0D01*
G01*
X80650000Y-74500500D02*
G75*
G02*
X85350000Y-74500500I2350000J0D01*
G01*
X13350000Y-74500500D02*
G75*
G02*
X8650000Y-74500500I-2350000J0D01*
G01*
X8650000Y-74500500D02*
G75*
G02*
X13350000Y-74500500I2350000J0D01*
G01*
X37350000Y-35500500D02*
G75*
G02*
X32650000Y-35500500I-2350000J0D01*
G01*
X32650000Y-35500500D02*
G75*
G02*
X37350000Y-35500500I2350000J0D01*
G01*
X37350000Y-50500500D02*
G75*
G02*
X32650000Y-50500500I-2350000J0D01*
G01*
X32650000Y-50500500D02*
G75*
G02*
X37350000Y-50500500I2350000J0D01*
G01*
X13350000Y-26500500D02*
G75*
G02*
X8650000Y-26500500I-2350000J0D01*
G01*
X8650000Y-26500500D02*
G75*
G02*
X13350000Y-26500500I2350000J0D01*
G01*
X61350000Y-74500500D02*
G75*
G02*
X56650000Y-74500500I-2350000J0D01*
G01*
X56650000Y-74500500D02*
G75*
G02*
X61350000Y-74500500I2350000J0D01*
G01*
X61350000Y-59500500D02*
G75*
G02*
X56650000Y-59500500I-2350000J0D01*
G01*
X56650000Y-59500500D02*
G75*
G02*
X61350000Y-59500500I2350000J0D01*
G01*
X69350000Y-59500500D02*
G75*
G02*
X64650000Y-59500500I-2350000J0D01*
G01*
X64650000Y-59500500D02*
G75*
G02*
X69350000Y-59500500I2350000J0D01*
G01*
X13350000Y-11500500D02*
G75*
G02*
X8650000Y-11500500I-2350000J0D01*
G01*
X8650000Y-11500500D02*
G75*
G02*
X13350000Y-11500500I2350000J0D01*
G01*
X5350000Y-50500500D02*
G75*
G02*
X650000Y-50500500I-2350000J0D01*
G01*
X650000Y-50500500D02*
G75*
G02*
X5350000Y-50500500I2350000J0D01*
G01*
X85350000Y-35500500D02*
G75*
G02*
X80650000Y-35500500I-2350000J0D01*
G01*
X80650000Y-35500500D02*
G75*
G02*
X85350000Y-35500500I2350000J0D01*
G01*
X61350000Y-50500500D02*
G75*
G02*
X56650000Y-50500500I-2350000J0D01*
G01*
X56650000Y-50500500D02*
G75*
G02*
X61350000Y-50500500I2350000J0D01*
G01*
X45350000Y-26500500D02*
G75*
G02*
X40650000Y-26500500I-2350000J0D01*
G01*
X40650000Y-26500500D02*
G75*
G02*
X45350000Y-26500500I2350000J0D01*
G01*
X53350000Y-11500500D02*
G75*
G02*
X48650000Y-11500500I-2350000J0D01*
G01*
X48650000Y-11500500D02*
G75*
G02*
X53350000Y-11500500I2350000J0D01*
G01*
X77350000Y-26500500D02*
G75*
G02*
X72650000Y-26500500I-2350000J0D01*
G01*
X72650000Y-26500500D02*
G75*
G02*
X77350000Y-26500500I2350000J0D01*
G01*
X53350000Y-50500500D02*
G75*
G02*
X48650000Y-50500500I-2350000J0D01*
G01*
X48650000Y-50500500D02*
G75*
G02*
X53350000Y-50500500I2350000J0D01*
G01*
X77350000Y-50500500D02*
G75*
G02*
X72650000Y-50500500I-2350000J0D01*
G01*
X72650000Y-50500500D02*
G75*
G02*
X77350000Y-50500500I2350000J0D01*
G01*
X45350000Y-35500500D02*
G75*
G02*
X40650000Y-35500500I-2350000J0D01*
G01*
X40650000Y-35500500D02*
G75*
G02*
X45350000Y-35500500I2350000J0D01*
G01*
X69350000Y-74500500D02*
G75*
G02*
X64650000Y-74500500I-2350000J0D01*
G01*
X64650000Y-74500500D02*
G75*
G02*
X69350000Y-74500500I2350000J0D01*
G01*
X61350000Y-11500500D02*
G75*
G02*
X56650000Y-11500500I-2350000J0D01*
G01*
X56650000Y-11500500D02*
G75*
G02*
X61350000Y-11500500I2350000J0D01*
G01*
X21350000Y-59500500D02*
G75*
G02*
X16650000Y-59500500I-2350000J0D01*
G01*
X16650000Y-59500500D02*
G75*
G02*
X21350000Y-59500500I2350000J0D01*
G01*
X53350000Y-59500500D02*
G75*
G02*
X48650000Y-59500500I-2350000J0D01*
G01*
X48650000Y-59500500D02*
G75*
G02*
X53350000Y-59500500I2350000J0D01*
G01*
X37350000Y-59500500D02*
G75*
G02*
X32650000Y-59500500I-2350000J0D01*
G01*
X32650000Y-59500500D02*
G75*
G02*
X37350000Y-59500500I2350000J0D01*
G01*
X93350000Y-26500500D02*
G75*
G02*
X88650000Y-26500500I-2350000J0D01*
G01*
X88650000Y-26500500D02*
G75*
G02*
X93350000Y-26500500I2350000J0D01*
G01*
X77350000Y-59500500D02*
G75*
G02*
X72650000Y-59500500I-2350000J0D01*
G01*
X72650000Y-59500500D02*
G75*
G02*
X77350000Y-59500500I2350000J0D01*
G01*
X85350000Y-50500500D02*
G75*
G02*
X80650000Y-50500500I-2350000J0D01*
G01*
X80650000Y-50500500D02*
G75*
G02*
X85350000Y-50500500I2350000J0D01*
G01*
X13350000Y-50500500D02*
G75*
G02*
X8650000Y-50500500I-2350000J0D01*
G01*
X8650000Y-50500500D02*
G75*
G02*
X13350000Y-50500500I2350000J0D01*
G01*
X69350000Y-11500500D02*
G75*
G02*
X64650000Y-11500500I-2350000J0D01*
G01*
X64650000Y-11500500D02*
G75*
G02*
X69350000Y-11500500I2350000J0D01*
G01*
X5350000Y-74500500D02*
G75*
G02*
X650000Y-74500500I-2350000J0D01*
G01*
X650000Y-74500500D02*
G75*
G02*
X5350000Y-74500500I2350000J0D01*
G01*
X21350000Y-26500500D02*
G75*
G02*
X16650000Y-26500500I-2350000J0D01*
G01*
X16650000Y-26500500D02*
G75*
G02*
X21350000Y-26500500I2350000J0D01*
G01*
X37350000Y-26500500D02*
G75*
G02*
X32650000Y-26500500I-2350000J0D01*
G01*
X32650000Y-26500500D02*
G75*
G02*
X37350000Y-26500500I2350000J0D01*
G01*
X29350000Y-74500500D02*
G75*
G02*
X24650000Y-74500500I-2350000J0D01*
G01*
X24650000Y-74500500D02*
G75*
G02*
X29350000Y-74500500I2350000J0D01*
G01*
X21350000Y-50500500D02*
G75*
G02*
X16650000Y-50500500I-2350000J0D01*
G01*
X16650000Y-50500500D02*
G75*
G02*
X21350000Y-50500500I2350000J0D01*
G01*
X29350000Y-35500500D02*
G75*
G02*
X24650000Y-35500500I-2350000J0D01*
G01*
X24650000Y-35500500D02*
G75*
G02*
X29350000Y-35500500I2350000J0D01*
G01*
X29350000Y-59500500D02*
G75*
G02*
X24650000Y-59500500I-2350000J0D01*
G01*
X24650000Y-59500500D02*
G75*
G02*
X29350000Y-59500500I2350000J0D01*
G01*
D11*
%TO.C,R1*%
X73630000Y-15730500D02*
X73630000Y-22270500D01*
X73630000Y-22270500D02*
X73960000Y-22270500D01*
X73960000Y-15730500D02*
X73630000Y-15730500D01*
X76040000Y-15730500D02*
X76370000Y-15730500D01*
X76370000Y-15730500D02*
X76370000Y-22270500D01*
X76370000Y-22270500D02*
X76040000Y-22270500D01*
X89630000Y-39730500D02*
X89630000Y-46270500D01*
X89630000Y-46270500D02*
X89960000Y-46270500D01*
X89960000Y-39730500D02*
X89630000Y-39730500D01*
X92040000Y-39730500D02*
X92370000Y-39730500D01*
X92370000Y-39730500D02*
X92370000Y-46270500D01*
X92370000Y-46270500D02*
X92040000Y-46270500D01*
X17630000Y-63730500D02*
X17630000Y-70270500D01*
X17630000Y-70270500D02*
X17960000Y-70270500D01*
X17960000Y-63730500D02*
X17630000Y-63730500D01*
X20040000Y-63730500D02*
X20370000Y-63730500D01*
X20370000Y-63730500D02*
X20370000Y-70270500D01*
X20370000Y-70270500D02*
X20040000Y-70270500D01*
X33630000Y-39730500D02*
X33630000Y-46270500D01*
X33630000Y-46270500D02*
X33960000Y-46270500D01*
X33960000Y-39730500D02*
X33630000Y-39730500D01*
X36040000Y-39730500D02*
X36370000Y-39730500D01*
X36370000Y-39730500D02*
X36370000Y-46270500D01*
X36370000Y-46270500D02*
X36040000Y-46270500D01*
X33630000Y-63730500D02*
X33630000Y-70270500D01*
X33630000Y-70270500D02*
X33960000Y-70270500D01*
X33960000Y-63730500D02*
X33630000Y-63730500D01*
X36040000Y-63730500D02*
X36370000Y-63730500D01*
X36370000Y-63730500D02*
X36370000Y-70270500D01*
X36370000Y-70270500D02*
X36040000Y-70270500D01*
X57630000Y-15730500D02*
X57630000Y-22270500D01*
X57630000Y-22270500D02*
X57960000Y-22270500D01*
X57960000Y-15730500D02*
X57630000Y-15730500D01*
X60040000Y-15730500D02*
X60370000Y-15730500D01*
X60370000Y-15730500D02*
X60370000Y-22270500D01*
X60370000Y-22270500D02*
X60040000Y-22270500D01*
X9630000Y-63730500D02*
X9630000Y-70270500D01*
X9630000Y-70270500D02*
X9960000Y-70270500D01*
X9960000Y-63730500D02*
X9630000Y-63730500D01*
X12040000Y-63730500D02*
X12370000Y-63730500D01*
X12370000Y-63730500D02*
X12370000Y-70270500D01*
X12370000Y-70270500D02*
X12040000Y-70270500D01*
X81630000Y-39730500D02*
X81630000Y-46270500D01*
X81630000Y-46270500D02*
X81960000Y-46270500D01*
X81960000Y-39730500D02*
X81630000Y-39730500D01*
X84040000Y-39730500D02*
X84370000Y-39730500D01*
X84370000Y-39730500D02*
X84370000Y-46270500D01*
X84370000Y-46270500D02*
X84040000Y-46270500D01*
X81630000Y-63730500D02*
X81630000Y-70270500D01*
X81630000Y-70270500D02*
X81960000Y-70270500D01*
X81960000Y-63730500D02*
X81630000Y-63730500D01*
X84040000Y-63730500D02*
X84370000Y-63730500D01*
X84370000Y-63730500D02*
X84370000Y-70270500D01*
X84370000Y-70270500D02*
X84040000Y-70270500D01*
X41630000Y-63730500D02*
X41630000Y-70270500D01*
X41630000Y-70270500D02*
X41960000Y-70270500D01*
X41960000Y-63730500D02*
X41630000Y-63730500D01*
X44040000Y-63730500D02*
X44370000Y-63730500D01*
X44370000Y-63730500D02*
X44370000Y-70270500D01*
X44370000Y-70270500D02*
X44040000Y-70270500D01*
X73630000Y-39730500D02*
X73630000Y-46270500D01*
X73630000Y-46270500D02*
X73960000Y-46270500D01*
X73960000Y-39730500D02*
X73630000Y-39730500D01*
X76040000Y-39730500D02*
X76370000Y-39730500D01*
X76370000Y-39730500D02*
X76370000Y-46270500D01*
X76370000Y-46270500D02*
X76040000Y-46270500D01*
X81630000Y-15730500D02*
X81630000Y-22270500D01*
X81630000Y-22270500D02*
X81960000Y-22270500D01*
X81960000Y-15730500D02*
X81630000Y-15730500D01*
X84040000Y-15730500D02*
X84370000Y-15730500D01*
X84370000Y-15730500D02*
X84370000Y-22270500D01*
X84370000Y-22270500D02*
X84040000Y-22270500D01*
X9630000Y-15730500D02*
X9630000Y-22270500D01*
X9630000Y-22270500D02*
X9960000Y-22270500D01*
X9960000Y-15730500D02*
X9630000Y-15730500D01*
X12040000Y-15730500D02*
X12370000Y-15730500D01*
X12370000Y-15730500D02*
X12370000Y-22270500D01*
X12370000Y-22270500D02*
X12040000Y-22270500D01*
X57630000Y-39730500D02*
X57630000Y-46270500D01*
X57630000Y-46270500D02*
X57960000Y-46270500D01*
X57960000Y-39730500D02*
X57630000Y-39730500D01*
X60040000Y-39730500D02*
X60370000Y-39730500D01*
X60370000Y-39730500D02*
X60370000Y-46270500D01*
X60370000Y-46270500D02*
X60040000Y-46270500D01*
X57630000Y-63730500D02*
X57630000Y-70270500D01*
X57630000Y-70270500D02*
X57960000Y-70270500D01*
X57960000Y-63730500D02*
X57630000Y-63730500D01*
X60040000Y-63730500D02*
X60370000Y-63730500D01*
X60370000Y-63730500D02*
X60370000Y-70270500D01*
X60370000Y-70270500D02*
X60040000Y-70270500D01*
X49630000Y-15730500D02*
X49630000Y-22270500D01*
X49630000Y-22270500D02*
X49960000Y-22270500D01*
X49960000Y-15730500D02*
X49630000Y-15730500D01*
X52040000Y-15730500D02*
X52370000Y-15730500D01*
X52370000Y-15730500D02*
X52370000Y-22270500D01*
X52370000Y-22270500D02*
X52040000Y-22270500D01*
X25630000Y-15730500D02*
X25630000Y-22270500D01*
X25630000Y-22270500D02*
X25960000Y-22270500D01*
X25960000Y-15730500D02*
X25630000Y-15730500D01*
X28040000Y-15730500D02*
X28370000Y-15730500D01*
X28370000Y-15730500D02*
X28370000Y-22270500D01*
X28370000Y-22270500D02*
X28040000Y-22270500D01*
X9630000Y-39730500D02*
X9630000Y-46270500D01*
X9630000Y-46270500D02*
X9960000Y-46270500D01*
X9960000Y-39730500D02*
X9630000Y-39730500D01*
X12040000Y-39730500D02*
X12370000Y-39730500D01*
X12370000Y-39730500D02*
X12370000Y-46270500D01*
X12370000Y-46270500D02*
X12040000Y-46270500D01*
X73630000Y-63730500D02*
X73630000Y-70270500D01*
X73630000Y-70270500D02*
X73960000Y-70270500D01*
X73960000Y-63730500D02*
X73630000Y-63730500D01*
X76040000Y-63730500D02*
X76370000Y-63730500D01*
X76370000Y-63730500D02*
X76370000Y-70270500D01*
X76370000Y-70270500D02*
X76040000Y-70270500D01*
X33630000Y-15730500D02*
X33630000Y-22270500D01*
X33630000Y-22270500D02*
X33960000Y-22270500D01*
X33960000Y-15730500D02*
X33630000Y-15730500D01*
X36040000Y-15730500D02*
X36370000Y-15730500D01*
X36370000Y-15730500D02*
X36370000Y-22270500D01*
X36370000Y-22270500D02*
X36040000Y-22270500D01*
X41630000Y-39730500D02*
X41630000Y-46270500D01*
X41630000Y-46270500D02*
X41960000Y-46270500D01*
X41960000Y-39730500D02*
X41630000Y-39730500D01*
X44040000Y-39730500D02*
X44370000Y-39730500D01*
X44370000Y-39730500D02*
X44370000Y-46270500D01*
X44370000Y-46270500D02*
X44040000Y-46270500D01*
X49630000Y-63730500D02*
X49630000Y-70270500D01*
X49630000Y-70270500D02*
X49960000Y-70270500D01*
X49960000Y-63730500D02*
X49630000Y-63730500D01*
X52040000Y-63730500D02*
X52370000Y-63730500D01*
X52370000Y-63730500D02*
X52370000Y-70270500D01*
X52370000Y-70270500D02*
X52040000Y-70270500D01*
X1630000Y-15730500D02*
X1630000Y-22270500D01*
X1630000Y-22270500D02*
X1960000Y-22270500D01*
X1960000Y-15730500D02*
X1630000Y-15730500D01*
X4040000Y-15730500D02*
X4370000Y-15730500D01*
X4370000Y-15730500D02*
X4370000Y-22270500D01*
X4370000Y-22270500D02*
X4040000Y-22270500D01*
X89630000Y-15730500D02*
X89630000Y-22270500D01*
X89630000Y-22270500D02*
X89960000Y-22270500D01*
X89960000Y-15730500D02*
X89630000Y-15730500D01*
X92040000Y-15730500D02*
X92370000Y-15730500D01*
X92370000Y-15730500D02*
X92370000Y-22270500D01*
X92370000Y-22270500D02*
X92040000Y-22270500D01*
X17630000Y-39730500D02*
X17630000Y-46270500D01*
X17630000Y-46270500D02*
X17960000Y-46270500D01*
X17960000Y-39730500D02*
X17630000Y-39730500D01*
X20040000Y-39730500D02*
X20370000Y-39730500D01*
X20370000Y-39730500D02*
X20370000Y-46270500D01*
X20370000Y-46270500D02*
X20040000Y-46270500D01*
X65630000Y-15730500D02*
X65630000Y-22270500D01*
X65630000Y-22270500D02*
X65960000Y-22270500D01*
X65960000Y-15730500D02*
X65630000Y-15730500D01*
X68040000Y-15730500D02*
X68370000Y-15730500D01*
X68370000Y-15730500D02*
X68370000Y-22270500D01*
X68370000Y-22270500D02*
X68040000Y-22270500D01*
X49630000Y-39730500D02*
X49630000Y-46270500D01*
X49630000Y-46270500D02*
X49960000Y-46270500D01*
X49960000Y-39730500D02*
X49630000Y-39730500D01*
X52040000Y-39730500D02*
X52370000Y-39730500D01*
X52370000Y-39730500D02*
X52370000Y-46270500D01*
X52370000Y-46270500D02*
X52040000Y-46270500D01*
X41630000Y-15730500D02*
X41630000Y-22270500D01*
X41630000Y-22270500D02*
X41960000Y-22270500D01*
X41960000Y-15730500D02*
X41630000Y-15730500D01*
X44040000Y-15730500D02*
X44370000Y-15730500D01*
X44370000Y-15730500D02*
X44370000Y-22270500D01*
X44370000Y-22270500D02*
X44040000Y-22270500D01*
X17630000Y-15730500D02*
X17630000Y-22270500D01*
X17630000Y-22270500D02*
X17960000Y-22270500D01*
X17960000Y-15730500D02*
X17630000Y-15730500D01*
X20040000Y-15730500D02*
X20370000Y-15730500D01*
X20370000Y-15730500D02*
X20370000Y-22270500D01*
X20370000Y-22270500D02*
X20040000Y-22270500D01*
X1630000Y-63730500D02*
X1630000Y-70270500D01*
X1630000Y-70270500D02*
X1960000Y-70270500D01*
X1960000Y-63730500D02*
X1630000Y-63730500D01*
X4040000Y-63730500D02*
X4370000Y-63730500D01*
X4370000Y-63730500D02*
X4370000Y-70270500D01*
X4370000Y-70270500D02*
X4040000Y-70270500D01*
X89630000Y-63730500D02*
X89630000Y-70270500D01*
X89630000Y-70270500D02*
X89960000Y-70270500D01*
X89960000Y-63730500D02*
X89630000Y-63730500D01*
X92040000Y-63730500D02*
X92370000Y-63730500D01*
X92370000Y-63730500D02*
X92370000Y-70270500D01*
X92370000Y-70270500D02*
X92040000Y-70270500D01*
X25630000Y-39730500D02*
X25630000Y-46270500D01*
X25630000Y-46270500D02*
X25960000Y-46270500D01*
X25960000Y-39730500D02*
X25630000Y-39730500D01*
X28040000Y-39730500D02*
X28370000Y-39730500D01*
X28370000Y-39730500D02*
X28370000Y-46270500D01*
X28370000Y-46270500D02*
X28040000Y-46270500D01*
X65630000Y-39730500D02*
X65630000Y-46270500D01*
X65630000Y-46270500D02*
X65960000Y-46270500D01*
X65960000Y-39730500D02*
X65630000Y-39730500D01*
X68040000Y-39730500D02*
X68370000Y-39730500D01*
X68370000Y-39730500D02*
X68370000Y-46270500D01*
X68370000Y-46270500D02*
X68040000Y-46270500D01*
X25630000Y-63730500D02*
X25630000Y-70270500D01*
X25630000Y-70270500D02*
X25960000Y-70270500D01*
X25960000Y-63730500D02*
X25630000Y-63730500D01*
X28040000Y-63730500D02*
X28370000Y-63730500D01*
X28370000Y-63730500D02*
X28370000Y-70270500D01*
X28370000Y-70270500D02*
X28040000Y-70270500D01*
X65630000Y-63730500D02*
X65630000Y-70270500D01*
X65630000Y-70270500D02*
X65960000Y-70270500D01*
X65960000Y-63730500D02*
X65630000Y-63730500D01*
X68040000Y-63730500D02*
X68370000Y-63730500D01*
X68370000Y-63730500D02*
X68370000Y-70270500D01*
X68370000Y-70270500D02*
X68040000Y-70270500D01*
X1630000Y-39730500D02*
X1630000Y-46270500D01*
X1630000Y-46270500D02*
X1960000Y-46270500D01*
X1960000Y-39730500D02*
X1630000Y-39730500D01*
X4040000Y-39730500D02*
X4370000Y-39730500D01*
X4370000Y-39730500D02*
X4370000Y-46270500D01*
X4370000Y-46270500D02*
X4040000Y-46270500D01*
%TD*%
%LPC*%
D12*
%TO.C,J2*%
X3000000Y-50500500D03*
%TD*%
%TO.C,J1*%
X43000000Y-11500500D03*
%TD*%
%TO.C,J1*%
X11000000Y-59500500D03*
%TD*%
D13*
%TO.C,R1*%
X75000000Y-14990500D03*
D14*
X75000000Y-22990500D03*
%TD*%
D12*
%TO.C,J1*%
X59000000Y-59500500D03*
%TD*%
%TO.C,J2*%
X75000000Y-50500500D03*
%TD*%
%TO.C,J2*%
X67000000Y-50500500D03*
%TD*%
%TO.C,J2*%
X75000000Y-26500500D03*
%TD*%
%TO.C,J1*%
X35000000Y-59500500D03*
%TD*%
D13*
%TO.C,R1*%
X91000000Y-38990500D03*
D14*
X91000000Y-46990500D03*
%TD*%
D12*
%TO.C,J2*%
X67000000Y-26500500D03*
%TD*%
D13*
%TO.C,R1*%
X19000000Y-62990500D03*
D14*
X19000000Y-70990500D03*
%TD*%
D13*
%TO.C,R1*%
X35000000Y-38990500D03*
D14*
X35000000Y-46990500D03*
%TD*%
D12*
%TO.C,J1*%
X91000000Y-59500500D03*
%TD*%
%TO.C,J1*%
X83000000Y-11500500D03*
%TD*%
D13*
%TO.C,R1*%
X35000000Y-62990500D03*
D14*
X35000000Y-70990500D03*
%TD*%
D13*
%TO.C,R1*%
X59000000Y-14990500D03*
D14*
X59000000Y-22990500D03*
%TD*%
D12*
%TO.C,J1*%
X51000000Y-59500500D03*
%TD*%
%TO.C,J2*%
X51000000Y-26500500D03*
%TD*%
D13*
%TO.C,R1*%
X11000000Y-62990500D03*
D14*
X11000000Y-70990500D03*
%TD*%
D13*
%TO.C,R1*%
X83000000Y-38990500D03*
D14*
X83000000Y-46990500D03*
%TD*%
D12*
%TO.C,J2*%
X59000000Y-50500500D03*
%TD*%
D13*
%TO.C,R1*%
X83000000Y-62990500D03*
D14*
X83000000Y-70990500D03*
%TD*%
D12*
%TO.C,J1*%
X91000000Y-35500500D03*
%TD*%
%TO.C,J2*%
X35000000Y-26500500D03*
%TD*%
%TO.C,J1*%
X27000000Y-59500500D03*
%TD*%
%TO.C,J1*%
X67000000Y-11500500D03*
%TD*%
%TO.C,J1*%
X11000000Y-35500500D03*
%TD*%
%TO.C,J2*%
X19000000Y-50500500D03*
%TD*%
%TO.C,J2*%
X59000000Y-74500500D03*
%TD*%
D13*
%TO.C,R1*%
X43000000Y-62990500D03*
D14*
X43000000Y-70990500D03*
%TD*%
D12*
%TO.C,J2*%
X3000000Y-74500500D03*
%TD*%
D13*
%TO.C,R1*%
X75000000Y-38990500D03*
D14*
X75000000Y-46990500D03*
%TD*%
D12*
%TO.C,J1*%
X83000000Y-59500500D03*
%TD*%
D13*
%TO.C,R1*%
X83000000Y-14990500D03*
D14*
X83000000Y-22990500D03*
%TD*%
D12*
%TO.C,J1*%
X3000000Y-11500500D03*
%TD*%
D13*
%TO.C,R1*%
X11000000Y-14990500D03*
D14*
X11000000Y-22990500D03*
%TD*%
D12*
%TO.C,J2*%
X43000000Y-74500500D03*
%TD*%
D13*
%TO.C,R1*%
X59000000Y-38990500D03*
D14*
X59000000Y-46990500D03*
%TD*%
D12*
%TO.C,J1*%
X75000000Y-11500500D03*
%TD*%
D13*
%TO.C,R1*%
X59000000Y-62990500D03*
D14*
X59000000Y-70990500D03*
%TD*%
D12*
%TO.C,J1*%
X35000000Y-11500500D03*
%TD*%
D13*
%TO.C,R1*%
X51000000Y-14990500D03*
D14*
X51000000Y-22990500D03*
%TD*%
D12*
%TO.C,J1*%
X59000000Y-35500500D03*
%TD*%
%TO.C,J1*%
X83000000Y-35500500D03*
%TD*%
%TO.C,J2*%
X43000000Y-50500500D03*
%TD*%
%TO.C,J2*%
X91000000Y-50500500D03*
%TD*%
%TO.C,J1*%
X43000000Y-35500500D03*
%TD*%
%TO.C,J2*%
X11000000Y-74500500D03*
%TD*%
%TO.C,J2*%
X59000000Y-26500500D03*
%TD*%
%TO.C,J1*%
X43000000Y-59500500D03*
%TD*%
%TO.C,J2*%
X83000000Y-74500500D03*
%TD*%
D13*
%TO.C,R1*%
X27000000Y-14990500D03*
D14*
X27000000Y-22990500D03*
%TD*%
D12*
%TO.C,J2*%
X27000000Y-50500500D03*
%TD*%
D13*
%TO.C,R1*%
X11000000Y-38990500D03*
D14*
X11000000Y-46990500D03*
%TD*%
D12*
%TO.C,J1*%
X75000000Y-35500500D03*
%TD*%
%TO.C,J1*%
X11000000Y-11500500D03*
%TD*%
%TO.C,J1*%
X35000000Y-35500500D03*
%TD*%
D13*
%TO.C,R1*%
X75000000Y-62990500D03*
D14*
X75000000Y-70990500D03*
%TD*%
D13*
%TO.C,R1*%
X35000000Y-14990500D03*
D14*
X35000000Y-22990500D03*
%TD*%
D13*
%TO.C,R1*%
X43000000Y-38990500D03*
D14*
X43000000Y-46990500D03*
%TD*%
D13*
%TO.C,R1*%
X51000000Y-62990500D03*
D14*
X51000000Y-70990500D03*
%TD*%
D12*
%TO.C,J2*%
X43000000Y-26500500D03*
%TD*%
%TO.C,J1*%
X3000000Y-59500500D03*
%TD*%
%TO.C,J1*%
X27000000Y-11500500D03*
%TD*%
%TO.C,J2*%
X91000000Y-26500500D03*
%TD*%
%TO.C,J2*%
X75000000Y-74500500D03*
%TD*%
%TO.C,J1*%
X67000000Y-35500500D03*
%TD*%
%TO.C,J2*%
X3000000Y-26500500D03*
%TD*%
%TO.C,J2*%
X11000000Y-50500500D03*
%TD*%
D13*
%TO.C,R1*%
X3000000Y-14990500D03*
D14*
X3000000Y-22990500D03*
%TD*%
D12*
%TO.C,J2*%
X83000000Y-50500500D03*
%TD*%
%TO.C,J2*%
X51000000Y-74500500D03*
%TD*%
%TO.C,J2*%
X35000000Y-74500500D03*
%TD*%
%TO.C,J2*%
X27000000Y-26500500D03*
%TD*%
%TO.C,J2*%
X67000000Y-74500500D03*
%TD*%
%TO.C,J1*%
X19000000Y-11500500D03*
%TD*%
D13*
%TO.C,R1*%
X91000000Y-14990500D03*
D14*
X91000000Y-22990500D03*
%TD*%
D12*
%TO.C,J1*%
X59000000Y-11500500D03*
%TD*%
%TO.C,J1*%
X3000000Y-35500500D03*
%TD*%
D13*
%TO.C,R1*%
X19000000Y-38990500D03*
D14*
X19000000Y-46990500D03*
%TD*%
D12*
%TO.C,J2*%
X83000000Y-26500500D03*
%TD*%
D13*
%TO.C,R1*%
X67000000Y-14990500D03*
D14*
X67000000Y-22990500D03*
%TD*%
D12*
%TO.C,J2*%
X51000000Y-50500500D03*
%TD*%
D13*
%TO.C,R1*%
X51000000Y-38990500D03*
D14*
X51000000Y-46990500D03*
%TD*%
D12*
%TO.C,J1*%
X75000000Y-59500500D03*
%TD*%
%TO.C,J1*%
X51000000Y-11500500D03*
%TD*%
D13*
%TO.C,R1*%
X43000000Y-14990500D03*
D14*
X43000000Y-22990500D03*
%TD*%
D12*
%TO.C,J1*%
X19000000Y-35500500D03*
%TD*%
%TO.C,J2*%
X27000000Y-74500500D03*
%TD*%
D13*
%TO.C,R1*%
X19000000Y-14990500D03*
D14*
X19000000Y-22990500D03*
%TD*%
D13*
%TO.C,R1*%
X3000000Y-62990500D03*
D14*
X3000000Y-70990500D03*
%TD*%
D12*
%TO.C,J2*%
X91000000Y-74500500D03*
%TD*%
%TO.C,J2*%
X19000000Y-74500500D03*
%TD*%
D13*
%TO.C,R1*%
X91000000Y-62990500D03*
D14*
X91000000Y-70990500D03*
%TD*%
D13*
%TO.C,R1*%
X27000000Y-38990500D03*
D14*
X27000000Y-46990500D03*
%TD*%
D13*
%TO.C,R1*%
X67000000Y-38990500D03*
D14*
X67000000Y-46990500D03*
%TD*%
D12*
%TO.C,J1*%
X27000000Y-35500500D03*
%TD*%
%TO.C,J1*%
X51000000Y-35500500D03*
%TD*%
D13*
%TO.C,R1*%
X27000000Y-62990500D03*
D14*
X27000000Y-70990500D03*
%TD*%
D12*
%TO.C,J2*%
X11000000Y-26500500D03*
%TD*%
%TO.C,J2*%
X35000000Y-50500500D03*
%TD*%
%TO.C,J2*%
X19000000Y-26500500D03*
%TD*%
D13*
%TO.C,R1*%
X67000000Y-62990500D03*
D14*
X67000000Y-70990500D03*
%TD*%
D13*
%TO.C,R1*%
X3000000Y-38990500D03*
D14*
X3000000Y-46990500D03*
%TD*%
D12*
%TO.C,J1*%
X19000000Y-59500500D03*
%TD*%
%TO.C,J1*%
X91000000Y-11500500D03*
%TD*%
%TO.C,J1*%
X67000000Y-59500500D03*
%TD*%
%LPD*%
M02*
