%TF.GenerationSoftware,KiCad,Pcbnew,8.0.2*%
%TF.CreationDate,2024-06-26T22:47:50+07:00*%
%TF.ProjectId,resistor_pitch_15mm_Panel,72657369-7374-46f7-925f-70697463685f,rev?*%
%TF.SameCoordinates,Original*%
%TF.FileFunction,Copper,L2,Bot*%
%TF.FilePolarity,Positive*%
%FSLAX46Y46*%
G04 Gerber Fmt 4.6, Leading zero omitted, Abs format (unit mm)*
G04 Created by KiCad (PCBNEW 8.0.2) date 2024-06-26 22:47:50*
%MOMM*%
%LPD*%
G01*
G04 APERTURE LIST*
%TA.AperFunction,ComponentPad*%
%ADD10C,4.000000*%
%TD*%
%TA.AperFunction,ComponentPad*%
%ADD11C,1.600000*%
%TD*%
%TA.AperFunction,ComponentPad*%
%ADD12O,1.600000X1.600000*%
%TD*%
%TA.AperFunction,Conductor*%
%ADD13C,1.000000*%
%TD*%
G04 APERTURE END LIST*
D10*
%TO.P,J2,1,Pin_1*%
%TO.N,Board_12-Net-(J2-Pin_1)*%
X3000000Y-50500500D03*
%TD*%
%TO.P,J1,1,Pin_1*%
%TO.N,Board_5-Net-(J1-Pin_1)*%
X43000000Y-11500500D03*
%TD*%
%TO.P,J1,1,Pin_1*%
%TO.N,Board_25-Net-(J1-Pin_1)*%
X11000000Y-59500500D03*
%TD*%
D11*
%TO.P,R1,1*%
%TO.N,Board_9-Net-(J1-Pin_1)*%
X75000000Y-14990500D03*
D12*
%TO.P,R1,2*%
%TO.N,Board_9-Net-(J2-Pin_1)*%
X75000000Y-22990500D03*
%TD*%
D10*
%TO.P,J1,1,Pin_1*%
%TO.N,Board_31-Net-(J1-Pin_1)*%
X59000000Y-59500500D03*
%TD*%
%TO.P,J2,1,Pin_1*%
%TO.N,Board_21-Net-(J2-Pin_1)*%
X75000000Y-50500500D03*
%TD*%
%TO.P,J2,1,Pin_1*%
%TO.N,Board_20-Net-(J2-Pin_1)*%
X67000000Y-50500500D03*
%TD*%
%TO.P,J2,1,Pin_1*%
%TO.N,Board_9-Net-(J2-Pin_1)*%
X75000000Y-26500500D03*
%TD*%
%TO.P,J1,1,Pin_1*%
%TO.N,Board_28-Net-(J1-Pin_1)*%
X35000000Y-59500500D03*
%TD*%
D11*
%TO.P,R1,1*%
%TO.N,Board_23-Net-(J1-Pin_1)*%
X91000000Y-38990500D03*
D12*
%TO.P,R1,2*%
%TO.N,Board_23-Net-(J2-Pin_1)*%
X91000000Y-46990500D03*
%TD*%
D10*
%TO.P,J2,1,Pin_1*%
%TO.N,Board_8-Net-(J2-Pin_1)*%
X67000000Y-26500500D03*
%TD*%
D11*
%TO.P,R1,1*%
%TO.N,Board_26-Net-(J1-Pin_1)*%
X19000000Y-62990500D03*
D12*
%TO.P,R1,2*%
%TO.N,Board_26-Net-(J2-Pin_1)*%
X19000000Y-70990500D03*
%TD*%
D11*
%TO.P,R1,1*%
%TO.N,Board_16-Net-(J1-Pin_1)*%
X35000000Y-38990500D03*
D12*
%TO.P,R1,2*%
%TO.N,Board_16-Net-(J2-Pin_1)*%
X35000000Y-46990500D03*
%TD*%
D10*
%TO.P,J1,1,Pin_1*%
%TO.N,Board_35-Net-(J1-Pin_1)*%
X91000000Y-59500500D03*
%TD*%
%TO.P,J1,1,Pin_1*%
%TO.N,Board_10-Net-(J1-Pin_1)*%
X83000000Y-11500500D03*
%TD*%
D11*
%TO.P,R1,1*%
%TO.N,Board_28-Net-(J1-Pin_1)*%
X35000000Y-62990500D03*
D12*
%TO.P,R1,2*%
%TO.N,Board_28-Net-(J2-Pin_1)*%
X35000000Y-70990500D03*
%TD*%
D11*
%TO.P,R1,1*%
%TO.N,Board_7-Net-(J1-Pin_1)*%
X59000000Y-14990500D03*
D12*
%TO.P,R1,2*%
%TO.N,Board_7-Net-(J2-Pin_1)*%
X59000000Y-22990500D03*
%TD*%
D10*
%TO.P,J1,1,Pin_1*%
%TO.N,Board_30-Net-(J1-Pin_1)*%
X51000000Y-59500500D03*
%TD*%
%TO.P,J2,1,Pin_1*%
%TO.N,Board_6-Net-(J2-Pin_1)*%
X51000000Y-26500500D03*
%TD*%
D11*
%TO.P,R1,1*%
%TO.N,Board_25-Net-(J1-Pin_1)*%
X11000000Y-62990500D03*
D12*
%TO.P,R1,2*%
%TO.N,Board_25-Net-(J2-Pin_1)*%
X11000000Y-70990500D03*
%TD*%
D11*
%TO.P,R1,1*%
%TO.N,Board_22-Net-(J1-Pin_1)*%
X83000000Y-38990500D03*
D12*
%TO.P,R1,2*%
%TO.N,Board_22-Net-(J2-Pin_1)*%
X83000000Y-46990500D03*
%TD*%
D10*
%TO.P,J2,1,Pin_1*%
%TO.N,Board_19-Net-(J2-Pin_1)*%
X59000000Y-50500500D03*
%TD*%
D11*
%TO.P,R1,1*%
%TO.N,Board_34-Net-(J1-Pin_1)*%
X83000000Y-62990500D03*
D12*
%TO.P,R1,2*%
%TO.N,Board_34-Net-(J2-Pin_1)*%
X83000000Y-70990500D03*
%TD*%
D10*
%TO.P,J1,1,Pin_1*%
%TO.N,Board_23-Net-(J1-Pin_1)*%
X91000000Y-35500500D03*
%TD*%
%TO.P,J2,1,Pin_1*%
%TO.N,Board_4-Net-(J2-Pin_1)*%
X35000000Y-26500500D03*
%TD*%
%TO.P,J1,1,Pin_1*%
%TO.N,Board_27-Net-(J1-Pin_1)*%
X27000000Y-59500500D03*
%TD*%
%TO.P,J1,1,Pin_1*%
%TO.N,Board_8-Net-(J1-Pin_1)*%
X67000000Y-11500500D03*
%TD*%
%TO.P,J1,1,Pin_1*%
%TO.N,Board_13-Net-(J1-Pin_1)*%
X11000000Y-35500500D03*
%TD*%
%TO.P,J2,1,Pin_1*%
%TO.N,Board_14-Net-(J2-Pin_1)*%
X19000000Y-50500500D03*
%TD*%
%TO.P,J2,1,Pin_1*%
%TO.N,Board_31-Net-(J2-Pin_1)*%
X59000000Y-74500500D03*
%TD*%
D11*
%TO.P,R1,1*%
%TO.N,Board_29-Net-(J1-Pin_1)*%
X43000000Y-62990500D03*
D12*
%TO.P,R1,2*%
%TO.N,Board_29-Net-(J2-Pin_1)*%
X43000000Y-70990500D03*
%TD*%
D10*
%TO.P,J2,1,Pin_1*%
%TO.N,Board_24-Net-(J2-Pin_1)*%
X3000000Y-74500500D03*
%TD*%
D11*
%TO.P,R1,1*%
%TO.N,Board_21-Net-(J1-Pin_1)*%
X75000000Y-38990500D03*
D12*
%TO.P,R1,2*%
%TO.N,Board_21-Net-(J2-Pin_1)*%
X75000000Y-46990500D03*
%TD*%
D10*
%TO.P,J1,1,Pin_1*%
%TO.N,Board_34-Net-(J1-Pin_1)*%
X83000000Y-59500500D03*
%TD*%
D11*
%TO.P,R1,1*%
%TO.N,Board_10-Net-(J1-Pin_1)*%
X83000000Y-14990500D03*
D12*
%TO.P,R1,2*%
%TO.N,Board_10-Net-(J2-Pin_1)*%
X83000000Y-22990500D03*
%TD*%
D10*
%TO.P,J1,1,Pin_1*%
%TO.N,Board_0-Net-(J1-Pin_1)*%
X3000000Y-11500500D03*
%TD*%
D11*
%TO.P,R1,1*%
%TO.N,Board_1-Net-(J1-Pin_1)*%
X11000000Y-14990500D03*
D12*
%TO.P,R1,2*%
%TO.N,Board_1-Net-(J2-Pin_1)*%
X11000000Y-22990500D03*
%TD*%
D10*
%TO.P,J2,1,Pin_1*%
%TO.N,Board_29-Net-(J2-Pin_1)*%
X43000000Y-74500500D03*
%TD*%
D11*
%TO.P,R1,1*%
%TO.N,Board_19-Net-(J1-Pin_1)*%
X59000000Y-38990500D03*
D12*
%TO.P,R1,2*%
%TO.N,Board_19-Net-(J2-Pin_1)*%
X59000000Y-46990500D03*
%TD*%
D10*
%TO.P,J1,1,Pin_1*%
%TO.N,Board_9-Net-(J1-Pin_1)*%
X75000000Y-11500500D03*
%TD*%
D11*
%TO.P,R1,1*%
%TO.N,Board_31-Net-(J1-Pin_1)*%
X59000000Y-62990500D03*
D12*
%TO.P,R1,2*%
%TO.N,Board_31-Net-(J2-Pin_1)*%
X59000000Y-70990500D03*
%TD*%
D10*
%TO.P,J1,1,Pin_1*%
%TO.N,Board_4-Net-(J1-Pin_1)*%
X35000000Y-11500500D03*
%TD*%
D11*
%TO.P,R1,1*%
%TO.N,Board_6-Net-(J1-Pin_1)*%
X51000000Y-14990500D03*
D12*
%TO.P,R1,2*%
%TO.N,Board_6-Net-(J2-Pin_1)*%
X51000000Y-22990500D03*
%TD*%
D10*
%TO.P,J1,1,Pin_1*%
%TO.N,Board_19-Net-(J1-Pin_1)*%
X59000000Y-35500500D03*
%TD*%
%TO.P,J1,1,Pin_1*%
%TO.N,Board_22-Net-(J1-Pin_1)*%
X83000000Y-35500500D03*
%TD*%
%TO.P,J2,1,Pin_1*%
%TO.N,Board_17-Net-(J2-Pin_1)*%
X43000000Y-50500500D03*
%TD*%
%TO.P,J2,1,Pin_1*%
%TO.N,Board_23-Net-(J2-Pin_1)*%
X91000000Y-50500500D03*
%TD*%
%TO.P,J1,1,Pin_1*%
%TO.N,Board_17-Net-(J1-Pin_1)*%
X43000000Y-35500500D03*
%TD*%
%TO.P,J2,1,Pin_1*%
%TO.N,Board_25-Net-(J2-Pin_1)*%
X11000000Y-74500500D03*
%TD*%
%TO.P,J2,1,Pin_1*%
%TO.N,Board_7-Net-(J2-Pin_1)*%
X59000000Y-26500500D03*
%TD*%
%TO.P,J1,1,Pin_1*%
%TO.N,Board_29-Net-(J1-Pin_1)*%
X43000000Y-59500500D03*
%TD*%
%TO.P,J2,1,Pin_1*%
%TO.N,Board_34-Net-(J2-Pin_1)*%
X83000000Y-74500500D03*
%TD*%
D11*
%TO.P,R1,1*%
%TO.N,Board_3-Net-(J1-Pin_1)*%
X27000000Y-14990500D03*
D12*
%TO.P,R1,2*%
%TO.N,Board_3-Net-(J2-Pin_1)*%
X27000000Y-22990500D03*
%TD*%
D10*
%TO.P,J2,1,Pin_1*%
%TO.N,Board_15-Net-(J2-Pin_1)*%
X27000000Y-50500500D03*
%TD*%
D11*
%TO.P,R1,1*%
%TO.N,Board_13-Net-(J1-Pin_1)*%
X11000000Y-38990500D03*
D12*
%TO.P,R1,2*%
%TO.N,Board_13-Net-(J2-Pin_1)*%
X11000000Y-46990500D03*
%TD*%
D10*
%TO.P,J1,1,Pin_1*%
%TO.N,Board_21-Net-(J1-Pin_1)*%
X75000000Y-35500500D03*
%TD*%
%TO.P,J1,1,Pin_1*%
%TO.N,Board_1-Net-(J1-Pin_1)*%
X11000000Y-11500500D03*
%TD*%
%TO.P,J1,1,Pin_1*%
%TO.N,Board_16-Net-(J1-Pin_1)*%
X35000000Y-35500500D03*
%TD*%
D11*
%TO.P,R1,1*%
%TO.N,Board_33-Net-(J1-Pin_1)*%
X75000000Y-62990500D03*
D12*
%TO.P,R1,2*%
%TO.N,Board_33-Net-(J2-Pin_1)*%
X75000000Y-70990500D03*
%TD*%
D11*
%TO.P,R1,1*%
%TO.N,Board_4-Net-(J1-Pin_1)*%
X35000000Y-14990500D03*
D12*
%TO.P,R1,2*%
%TO.N,Board_4-Net-(J2-Pin_1)*%
X35000000Y-22990500D03*
%TD*%
D11*
%TO.P,R1,1*%
%TO.N,Board_17-Net-(J1-Pin_1)*%
X43000000Y-38990500D03*
D12*
%TO.P,R1,2*%
%TO.N,Board_17-Net-(J2-Pin_1)*%
X43000000Y-46990500D03*
%TD*%
D11*
%TO.P,R1,1*%
%TO.N,Board_30-Net-(J1-Pin_1)*%
X51000000Y-62990500D03*
D12*
%TO.P,R1,2*%
%TO.N,Board_30-Net-(J2-Pin_1)*%
X51000000Y-70990500D03*
%TD*%
D10*
%TO.P,J2,1,Pin_1*%
%TO.N,Board_5-Net-(J2-Pin_1)*%
X43000000Y-26500500D03*
%TD*%
%TO.P,J1,1,Pin_1*%
%TO.N,Board_24-Net-(J1-Pin_1)*%
X3000000Y-59500500D03*
%TD*%
%TO.P,J1,1,Pin_1*%
%TO.N,Board_3-Net-(J1-Pin_1)*%
X27000000Y-11500500D03*
%TD*%
%TO.P,J2,1,Pin_1*%
%TO.N,Board_11-Net-(J2-Pin_1)*%
X91000000Y-26500500D03*
%TD*%
%TO.P,J2,1,Pin_1*%
%TO.N,Board_33-Net-(J2-Pin_1)*%
X75000000Y-74500500D03*
%TD*%
%TO.P,J1,1,Pin_1*%
%TO.N,Board_20-Net-(J1-Pin_1)*%
X67000000Y-35500500D03*
%TD*%
%TO.P,J2,1,Pin_1*%
%TO.N,Board_0-Net-(J2-Pin_1)*%
X3000000Y-26500500D03*
%TD*%
%TO.P,J2,1,Pin_1*%
%TO.N,Board_13-Net-(J2-Pin_1)*%
X11000000Y-50500500D03*
%TD*%
D11*
%TO.P,R1,1*%
%TO.N,Board_0-Net-(J1-Pin_1)*%
X3000000Y-14990500D03*
D12*
%TO.P,R1,2*%
%TO.N,Board_0-Net-(J2-Pin_1)*%
X3000000Y-22990500D03*
%TD*%
D10*
%TO.P,J2,1,Pin_1*%
%TO.N,Board_22-Net-(J2-Pin_1)*%
X83000000Y-50500500D03*
%TD*%
%TO.P,J2,1,Pin_1*%
%TO.N,Board_30-Net-(J2-Pin_1)*%
X51000000Y-74500500D03*
%TD*%
%TO.P,J2,1,Pin_1*%
%TO.N,Board_28-Net-(J2-Pin_1)*%
X35000000Y-74500500D03*
%TD*%
%TO.P,J2,1,Pin_1*%
%TO.N,Board_3-Net-(J2-Pin_1)*%
X27000000Y-26500500D03*
%TD*%
%TO.P,J2,1,Pin_1*%
%TO.N,Board_32-Net-(J2-Pin_1)*%
X67000000Y-74500500D03*
%TD*%
%TO.P,J1,1,Pin_1*%
%TO.N,Board_2-Net-(J1-Pin_1)*%
X19000000Y-11500500D03*
%TD*%
D11*
%TO.P,R1,1*%
%TO.N,Board_11-Net-(J1-Pin_1)*%
X91000000Y-14990500D03*
D12*
%TO.P,R1,2*%
%TO.N,Board_11-Net-(J2-Pin_1)*%
X91000000Y-22990500D03*
%TD*%
D10*
%TO.P,J1,1,Pin_1*%
%TO.N,Board_7-Net-(J1-Pin_1)*%
X59000000Y-11500500D03*
%TD*%
%TO.P,J1,1,Pin_1*%
%TO.N,Board_12-Net-(J1-Pin_1)*%
X3000000Y-35500500D03*
%TD*%
D11*
%TO.P,R1,1*%
%TO.N,Board_14-Net-(J1-Pin_1)*%
X19000000Y-38990500D03*
D12*
%TO.P,R1,2*%
%TO.N,Board_14-Net-(J2-Pin_1)*%
X19000000Y-46990500D03*
%TD*%
D10*
%TO.P,J2,1,Pin_1*%
%TO.N,Board_10-Net-(J2-Pin_1)*%
X83000000Y-26500500D03*
%TD*%
D11*
%TO.P,R1,1*%
%TO.N,Board_8-Net-(J1-Pin_1)*%
X67000000Y-14990500D03*
D12*
%TO.P,R1,2*%
%TO.N,Board_8-Net-(J2-Pin_1)*%
X67000000Y-22990500D03*
%TD*%
D10*
%TO.P,J2,1,Pin_1*%
%TO.N,Board_18-Net-(J2-Pin_1)*%
X51000000Y-50500500D03*
%TD*%
D11*
%TO.P,R1,1*%
%TO.N,Board_18-Net-(J1-Pin_1)*%
X51000000Y-38990500D03*
D12*
%TO.P,R1,2*%
%TO.N,Board_18-Net-(J2-Pin_1)*%
X51000000Y-46990500D03*
%TD*%
D10*
%TO.P,J1,1,Pin_1*%
%TO.N,Board_33-Net-(J1-Pin_1)*%
X75000000Y-59500500D03*
%TD*%
%TO.P,J1,1,Pin_1*%
%TO.N,Board_6-Net-(J1-Pin_1)*%
X51000000Y-11500500D03*
%TD*%
D11*
%TO.P,R1,1*%
%TO.N,Board_5-Net-(J1-Pin_1)*%
X43000000Y-14990500D03*
D12*
%TO.P,R1,2*%
%TO.N,Board_5-Net-(J2-Pin_1)*%
X43000000Y-22990500D03*
%TD*%
D10*
%TO.P,J1,1,Pin_1*%
%TO.N,Board_14-Net-(J1-Pin_1)*%
X19000000Y-35500500D03*
%TD*%
%TO.P,J2,1,Pin_1*%
%TO.N,Board_27-Net-(J2-Pin_1)*%
X27000000Y-74500500D03*
%TD*%
D11*
%TO.P,R1,1*%
%TO.N,Board_2-Net-(J1-Pin_1)*%
X19000000Y-14990500D03*
D12*
%TO.P,R1,2*%
%TO.N,Board_2-Net-(J2-Pin_1)*%
X19000000Y-22990500D03*
%TD*%
D11*
%TO.P,R1,1*%
%TO.N,Board_24-Net-(J1-Pin_1)*%
X3000000Y-62990500D03*
D12*
%TO.P,R1,2*%
%TO.N,Board_24-Net-(J2-Pin_1)*%
X3000000Y-70990500D03*
%TD*%
D10*
%TO.P,J2,1,Pin_1*%
%TO.N,Board_35-Net-(J2-Pin_1)*%
X91000000Y-74500500D03*
%TD*%
%TO.P,J2,1,Pin_1*%
%TO.N,Board_26-Net-(J2-Pin_1)*%
X19000000Y-74500500D03*
%TD*%
D11*
%TO.P,R1,1*%
%TO.N,Board_35-Net-(J1-Pin_1)*%
X91000000Y-62990500D03*
D12*
%TO.P,R1,2*%
%TO.N,Board_35-Net-(J2-Pin_1)*%
X91000000Y-70990500D03*
%TD*%
D11*
%TO.P,R1,1*%
%TO.N,Board_15-Net-(J1-Pin_1)*%
X27000000Y-38990500D03*
D12*
%TO.P,R1,2*%
%TO.N,Board_15-Net-(J2-Pin_1)*%
X27000000Y-46990500D03*
%TD*%
D11*
%TO.P,R1,1*%
%TO.N,Board_20-Net-(J1-Pin_1)*%
X67000000Y-38990500D03*
D12*
%TO.P,R1,2*%
%TO.N,Board_20-Net-(J2-Pin_1)*%
X67000000Y-46990500D03*
%TD*%
D10*
%TO.P,J1,1,Pin_1*%
%TO.N,Board_15-Net-(J1-Pin_1)*%
X27000000Y-35500500D03*
%TD*%
%TO.P,J1,1,Pin_1*%
%TO.N,Board_18-Net-(J1-Pin_1)*%
X51000000Y-35500500D03*
%TD*%
D11*
%TO.P,R1,1*%
%TO.N,Board_27-Net-(J1-Pin_1)*%
X27000000Y-62990500D03*
D12*
%TO.P,R1,2*%
%TO.N,Board_27-Net-(J2-Pin_1)*%
X27000000Y-70990500D03*
%TD*%
D10*
%TO.P,J2,1,Pin_1*%
%TO.N,Board_1-Net-(J2-Pin_1)*%
X11000000Y-26500500D03*
%TD*%
%TO.P,J2,1,Pin_1*%
%TO.N,Board_16-Net-(J2-Pin_1)*%
X35000000Y-50500500D03*
%TD*%
%TO.P,J2,1,Pin_1*%
%TO.N,Board_2-Net-(J2-Pin_1)*%
X19000000Y-26500500D03*
%TD*%
D11*
%TO.P,R1,1*%
%TO.N,Board_32-Net-(J1-Pin_1)*%
X67000000Y-62990500D03*
D12*
%TO.P,R1,2*%
%TO.N,Board_32-Net-(J2-Pin_1)*%
X67000000Y-70990500D03*
%TD*%
D11*
%TO.P,R1,1*%
%TO.N,Board_12-Net-(J1-Pin_1)*%
X3000000Y-38990500D03*
D12*
%TO.P,R1,2*%
%TO.N,Board_12-Net-(J2-Pin_1)*%
X3000000Y-46990500D03*
%TD*%
D10*
%TO.P,J1,1,Pin_1*%
%TO.N,Board_26-Net-(J1-Pin_1)*%
X19000000Y-59500500D03*
%TD*%
%TO.P,J1,1,Pin_1*%
%TO.N,Board_11-Net-(J1-Pin_1)*%
X91000000Y-11500500D03*
%TD*%
%TO.P,J1,1,Pin_1*%
%TO.N,Board_32-Net-(J1-Pin_1)*%
X67000000Y-59500500D03*
%TD*%
D13*
%TO.N,Board_35-Net-(J2-Pin_1)*%
X91000000Y-70810500D02*
X91000000Y-74500500D01*
%TO.N,Board_35-Net-(J1-Pin_1)*%
X91000000Y-63190500D02*
X91000000Y-59500500D01*
%TO.N,Board_34-Net-(J2-Pin_1)*%
X83000000Y-70810500D02*
X83000000Y-74500500D01*
%TO.N,Board_34-Net-(J1-Pin_1)*%
X83000000Y-63190500D02*
X83000000Y-59500500D01*
%TO.N,Board_33-Net-(J2-Pin_1)*%
X75000000Y-70810500D02*
X75000000Y-74500500D01*
%TO.N,Board_33-Net-(J1-Pin_1)*%
X75000000Y-63190500D02*
X75000000Y-59500500D01*
%TO.N,Board_32-Net-(J2-Pin_1)*%
X67000000Y-70810500D02*
X67000000Y-74500500D01*
%TO.N,Board_32-Net-(J1-Pin_1)*%
X67000000Y-63190500D02*
X67000000Y-59500500D01*
%TO.N,Board_31-Net-(J2-Pin_1)*%
X59000000Y-70810500D02*
X59000000Y-74500500D01*
%TO.N,Board_31-Net-(J1-Pin_1)*%
X59000000Y-63190500D02*
X59000000Y-59500500D01*
%TO.N,Board_30-Net-(J2-Pin_1)*%
X51000000Y-70810500D02*
X51000000Y-74500500D01*
%TO.N,Board_30-Net-(J1-Pin_1)*%
X51000000Y-63190500D02*
X51000000Y-59500500D01*
%TO.N,Board_29-Net-(J2-Pin_1)*%
X43000000Y-70810500D02*
X43000000Y-74500500D01*
%TO.N,Board_29-Net-(J1-Pin_1)*%
X43000000Y-63190500D02*
X43000000Y-59500500D01*
%TO.N,Board_28-Net-(J2-Pin_1)*%
X35000000Y-70810500D02*
X35000000Y-74500500D01*
%TO.N,Board_28-Net-(J1-Pin_1)*%
X35000000Y-63190500D02*
X35000000Y-59500500D01*
%TO.N,Board_27-Net-(J2-Pin_1)*%
X27000000Y-70810500D02*
X27000000Y-74500500D01*
%TO.N,Board_27-Net-(J1-Pin_1)*%
X27000000Y-63190500D02*
X27000000Y-59500500D01*
%TO.N,Board_26-Net-(J2-Pin_1)*%
X19000000Y-70810500D02*
X19000000Y-74500500D01*
%TO.N,Board_26-Net-(J1-Pin_1)*%
X19000000Y-63190500D02*
X19000000Y-59500500D01*
%TO.N,Board_25-Net-(J2-Pin_1)*%
X11000000Y-70810500D02*
X11000000Y-74500500D01*
%TO.N,Board_25-Net-(J1-Pin_1)*%
X11000000Y-63190500D02*
X11000000Y-59500500D01*
%TO.N,Board_24-Net-(J2-Pin_1)*%
X3000000Y-70810500D02*
X3000000Y-74500500D01*
%TO.N,Board_24-Net-(J1-Pin_1)*%
X3000000Y-63190500D02*
X3000000Y-59500500D01*
%TO.N,Board_23-Net-(J2-Pin_1)*%
X91000000Y-46810500D02*
X91000000Y-50500500D01*
%TO.N,Board_23-Net-(J1-Pin_1)*%
X91000000Y-39190500D02*
X91000000Y-35500500D01*
%TO.N,Board_22-Net-(J2-Pin_1)*%
X83000000Y-46810500D02*
X83000000Y-50500500D01*
%TO.N,Board_22-Net-(J1-Pin_1)*%
X83000000Y-39190500D02*
X83000000Y-35500500D01*
%TO.N,Board_21-Net-(J2-Pin_1)*%
X75000000Y-46810500D02*
X75000000Y-50500500D01*
%TO.N,Board_21-Net-(J1-Pin_1)*%
X75000000Y-39190500D02*
X75000000Y-35500500D01*
%TO.N,Board_20-Net-(J2-Pin_1)*%
X67000000Y-46810500D02*
X67000000Y-50500500D01*
%TO.N,Board_20-Net-(J1-Pin_1)*%
X67000000Y-39190500D02*
X67000000Y-35500500D01*
%TO.N,Board_19-Net-(J2-Pin_1)*%
X59000000Y-46810500D02*
X59000000Y-50500500D01*
%TO.N,Board_19-Net-(J1-Pin_1)*%
X59000000Y-39190500D02*
X59000000Y-35500500D01*
%TO.N,Board_18-Net-(J2-Pin_1)*%
X51000000Y-46810500D02*
X51000000Y-50500500D01*
%TO.N,Board_18-Net-(J1-Pin_1)*%
X51000000Y-39190500D02*
X51000000Y-35500500D01*
%TO.N,Board_17-Net-(J2-Pin_1)*%
X43000000Y-46810500D02*
X43000000Y-50500500D01*
%TO.N,Board_17-Net-(J1-Pin_1)*%
X43000000Y-39190500D02*
X43000000Y-35500500D01*
%TO.N,Board_16-Net-(J2-Pin_1)*%
X35000000Y-46810500D02*
X35000000Y-50500500D01*
%TO.N,Board_16-Net-(J1-Pin_1)*%
X35000000Y-39190500D02*
X35000000Y-35500500D01*
%TO.N,Board_15-Net-(J2-Pin_1)*%
X27000000Y-46810500D02*
X27000000Y-50500500D01*
%TO.N,Board_15-Net-(J1-Pin_1)*%
X27000000Y-39190500D02*
X27000000Y-35500500D01*
%TO.N,Board_14-Net-(J2-Pin_1)*%
X19000000Y-46810500D02*
X19000000Y-50500500D01*
%TO.N,Board_14-Net-(J1-Pin_1)*%
X19000000Y-39190500D02*
X19000000Y-35500500D01*
%TO.N,Board_13-Net-(J2-Pin_1)*%
X11000000Y-46810500D02*
X11000000Y-50500500D01*
%TO.N,Board_13-Net-(J1-Pin_1)*%
X11000000Y-39190500D02*
X11000000Y-35500500D01*
%TO.N,Board_12-Net-(J2-Pin_1)*%
X3000000Y-46810500D02*
X3000000Y-50500500D01*
%TO.N,Board_12-Net-(J1-Pin_1)*%
X3000000Y-39190500D02*
X3000000Y-35500500D01*
%TO.N,Board_11-Net-(J2-Pin_1)*%
X91000000Y-22810500D02*
X91000000Y-26500500D01*
%TO.N,Board_11-Net-(J1-Pin_1)*%
X91000000Y-15190500D02*
X91000000Y-11500500D01*
%TO.N,Board_10-Net-(J2-Pin_1)*%
X83000000Y-22810500D02*
X83000000Y-26500500D01*
%TO.N,Board_10-Net-(J1-Pin_1)*%
X83000000Y-15190500D02*
X83000000Y-11500500D01*
%TO.N,Board_9-Net-(J2-Pin_1)*%
X75000000Y-22810500D02*
X75000000Y-26500500D01*
%TO.N,Board_9-Net-(J1-Pin_1)*%
X75000000Y-15190500D02*
X75000000Y-11500500D01*
%TO.N,Board_8-Net-(J2-Pin_1)*%
X67000000Y-22810500D02*
X67000000Y-26500500D01*
%TO.N,Board_8-Net-(J1-Pin_1)*%
X67000000Y-15190500D02*
X67000000Y-11500500D01*
%TO.N,Board_7-Net-(J2-Pin_1)*%
X59000000Y-22810500D02*
X59000000Y-26500500D01*
%TO.N,Board_7-Net-(J1-Pin_1)*%
X59000000Y-15190500D02*
X59000000Y-11500500D01*
%TO.N,Board_6-Net-(J2-Pin_1)*%
X51000000Y-22810500D02*
X51000000Y-26500500D01*
%TO.N,Board_6-Net-(J1-Pin_1)*%
X51000000Y-15190500D02*
X51000000Y-11500500D01*
%TO.N,Board_5-Net-(J2-Pin_1)*%
X43000000Y-22810500D02*
X43000000Y-26500500D01*
%TO.N,Board_5-Net-(J1-Pin_1)*%
X43000000Y-15190500D02*
X43000000Y-11500500D01*
%TO.N,Board_4-Net-(J2-Pin_1)*%
X35000000Y-22810500D02*
X35000000Y-26500500D01*
%TO.N,Board_4-Net-(J1-Pin_1)*%
X35000000Y-15190500D02*
X35000000Y-11500500D01*
%TO.N,Board_3-Net-(J2-Pin_1)*%
X27000000Y-22810500D02*
X27000000Y-26500500D01*
%TO.N,Board_3-Net-(J1-Pin_1)*%
X27000000Y-15190500D02*
X27000000Y-11500500D01*
%TO.N,Board_2-Net-(J2-Pin_1)*%
X19000000Y-22810500D02*
X19000000Y-26500500D01*
%TO.N,Board_2-Net-(J1-Pin_1)*%
X19000000Y-15190500D02*
X19000000Y-11500500D01*
%TO.N,Board_1-Net-(J2-Pin_1)*%
X11000000Y-22810500D02*
X11000000Y-26500500D01*
%TO.N,Board_1-Net-(J1-Pin_1)*%
X11000000Y-15190500D02*
X11000000Y-11500500D01*
%TO.N,Board_0-Net-(J2-Pin_1)*%
X3000000Y-22810500D02*
X3000000Y-26500500D01*
%TO.N,Board_0-Net-(J1-Pin_1)*%
X3000000Y-15190500D02*
X3000000Y-11500500D01*
%TD*%
%TA.AperFunction,Conductor*%
%TO.N,Board_35-Net-(J2-Pin_1)*%
G36*
X91785920Y-70990482D02*
G01*
X91794188Y-70993919D01*
X91797605Y-71002197D01*
X91797405Y-71004338D01*
X91501790Y-72580956D01*
X91496897Y-72588456D01*
X91490290Y-72590500D01*
X90509710Y-72590500D01*
X90501437Y-72587073D01*
X90498210Y-72580956D01*
X90202594Y-71004336D01*
X90204438Y-70995575D01*
X90211938Y-70990682D01*
X90214074Y-70990482D01*
X91000000Y-70989500D01*
X91785920Y-70990482D01*
G37*
%TD.AperFunction*%
%TD*%
%TA.AperFunction,Conductor*%
%TO.N,Board_35-Net-(J2-Pin_1)*%
G36*
X91500735Y-70813927D02*
G01*
X91503116Y-70817365D01*
X92913421Y-73924775D01*
X92913720Y-73933724D01*
X92907602Y-73940264D01*
X92906069Y-73940834D01*
X91003302Y-74500528D01*
X90996698Y-74500528D01*
X89093930Y-73940834D01*
X89086960Y-73935212D01*
X89086008Y-73926308D01*
X89086578Y-73924775D01*
X90496884Y-70817365D01*
X90503424Y-70811247D01*
X90507538Y-70810500D01*
X91492462Y-70810500D01*
X91500735Y-70813927D01*
G37*
%TD.AperFunction*%
%TD*%
%TA.AperFunction,Conductor*%
%TO.N,Board_35-Net-(J1-Pin_1)*%
G36*
X92906069Y-60060165D02*
G01*
X92913039Y-60065787D01*
X92913991Y-60074691D01*
X92913421Y-60076224D01*
X91503116Y-63183635D01*
X91496576Y-63189753D01*
X91492462Y-63190500D01*
X90507538Y-63190500D01*
X90499265Y-63187073D01*
X90496884Y-63183635D01*
X89086578Y-60076224D01*
X89086279Y-60067275D01*
X89092397Y-60060735D01*
X89093919Y-60060168D01*
X90996699Y-59500471D01*
X91003301Y-59500471D01*
X92906069Y-60060165D01*
G37*
%TD.AperFunction*%
%TD*%
%TA.AperFunction,Conductor*%
%TO.N,Board_34-Net-(J2-Pin_1)*%
G36*
X83785920Y-70990482D02*
G01*
X83794188Y-70993919D01*
X83797605Y-71002197D01*
X83797405Y-71004338D01*
X83501790Y-72580956D01*
X83496897Y-72588456D01*
X83490290Y-72590500D01*
X82509710Y-72590500D01*
X82501437Y-72587073D01*
X82498210Y-72580956D01*
X82202594Y-71004336D01*
X82204438Y-70995575D01*
X82211938Y-70990682D01*
X82214074Y-70990482D01*
X83000000Y-70989500D01*
X83785920Y-70990482D01*
G37*
%TD.AperFunction*%
%TD*%
%TA.AperFunction,Conductor*%
%TO.N,Board_34-Net-(J2-Pin_1)*%
G36*
X83500735Y-70813927D02*
G01*
X83503116Y-70817365D01*
X84913421Y-73924775D01*
X84913720Y-73933724D01*
X84907602Y-73940264D01*
X84906069Y-73940834D01*
X83003302Y-74500528D01*
X82996698Y-74500528D01*
X81093930Y-73940834D01*
X81086960Y-73935212D01*
X81086008Y-73926308D01*
X81086578Y-73924775D01*
X82496884Y-70817365D01*
X82503424Y-70811247D01*
X82507538Y-70810500D01*
X83492462Y-70810500D01*
X83500735Y-70813927D01*
G37*
%TD.AperFunction*%
%TD*%
%TA.AperFunction,Conductor*%
%TO.N,Board_34-Net-(J1-Pin_1)*%
G36*
X84906069Y-60060165D02*
G01*
X84913039Y-60065787D01*
X84913991Y-60074691D01*
X84913421Y-60076224D01*
X83503116Y-63183635D01*
X83496576Y-63189753D01*
X83492462Y-63190500D01*
X82507538Y-63190500D01*
X82499265Y-63187073D01*
X82496884Y-63183635D01*
X81086578Y-60076224D01*
X81086279Y-60067275D01*
X81092397Y-60060735D01*
X81093919Y-60060168D01*
X82996699Y-59500471D01*
X83003301Y-59500471D01*
X84906069Y-60060165D01*
G37*
%TD.AperFunction*%
%TD*%
%TA.AperFunction,Conductor*%
%TO.N,Board_33-Net-(J2-Pin_1)*%
G36*
X75500735Y-70813927D02*
G01*
X75503116Y-70817365D01*
X76913421Y-73924775D01*
X76913720Y-73933724D01*
X76907602Y-73940264D01*
X76906069Y-73940834D01*
X75003302Y-74500528D01*
X74996698Y-74500528D01*
X73093930Y-73940834D01*
X73086960Y-73935212D01*
X73086008Y-73926308D01*
X73086578Y-73924775D01*
X74496884Y-70817365D01*
X74503424Y-70811247D01*
X74507538Y-70810500D01*
X75492462Y-70810500D01*
X75500735Y-70813927D01*
G37*
%TD.AperFunction*%
%TD*%
%TA.AperFunction,Conductor*%
%TO.N,Board_33-Net-(J2-Pin_1)*%
G36*
X75785920Y-70990482D02*
G01*
X75794188Y-70993919D01*
X75797605Y-71002197D01*
X75797405Y-71004338D01*
X75501790Y-72580956D01*
X75496897Y-72588456D01*
X75490290Y-72590500D01*
X74509710Y-72590500D01*
X74501437Y-72587073D01*
X74498210Y-72580956D01*
X74202594Y-71004336D01*
X74204438Y-70995575D01*
X74211938Y-70990682D01*
X74214074Y-70990482D01*
X75000000Y-70989500D01*
X75785920Y-70990482D01*
G37*
%TD.AperFunction*%
%TD*%
%TA.AperFunction,Conductor*%
%TO.N,Board_33-Net-(J1-Pin_1)*%
G36*
X76906069Y-60060165D02*
G01*
X76913039Y-60065787D01*
X76913991Y-60074691D01*
X76913421Y-60076224D01*
X75503116Y-63183635D01*
X75496576Y-63189753D01*
X75492462Y-63190500D01*
X74507538Y-63190500D01*
X74499265Y-63187073D01*
X74496884Y-63183635D01*
X73086578Y-60076224D01*
X73086279Y-60067275D01*
X73092397Y-60060735D01*
X73093919Y-60060168D01*
X74996699Y-59500471D01*
X75003301Y-59500471D01*
X76906069Y-60060165D01*
G37*
%TD.AperFunction*%
%TD*%
%TA.AperFunction,Conductor*%
%TO.N,Board_32-Net-(J2-Pin_1)*%
G36*
X67500735Y-70813927D02*
G01*
X67503116Y-70817365D01*
X68913421Y-73924775D01*
X68913720Y-73933724D01*
X68907602Y-73940264D01*
X68906069Y-73940834D01*
X67003302Y-74500528D01*
X66996698Y-74500528D01*
X65093930Y-73940834D01*
X65086960Y-73935212D01*
X65086008Y-73926308D01*
X65086578Y-73924775D01*
X66496884Y-70817365D01*
X66503424Y-70811247D01*
X66507538Y-70810500D01*
X67492462Y-70810500D01*
X67500735Y-70813927D01*
G37*
%TD.AperFunction*%
%TD*%
%TA.AperFunction,Conductor*%
%TO.N,Board_32-Net-(J2-Pin_1)*%
G36*
X67785920Y-70990482D02*
G01*
X67794188Y-70993919D01*
X67797605Y-71002197D01*
X67797405Y-71004338D01*
X67501790Y-72580956D01*
X67496897Y-72588456D01*
X67490290Y-72590500D01*
X66509710Y-72590500D01*
X66501437Y-72587073D01*
X66498210Y-72580956D01*
X66202594Y-71004336D01*
X66204438Y-70995575D01*
X66211938Y-70990682D01*
X66214074Y-70990482D01*
X67000000Y-70989500D01*
X67785920Y-70990482D01*
G37*
%TD.AperFunction*%
%TD*%
%TA.AperFunction,Conductor*%
%TO.N,Board_32-Net-(J1-Pin_1)*%
G36*
X68906069Y-60060165D02*
G01*
X68913039Y-60065787D01*
X68913991Y-60074691D01*
X68913421Y-60076224D01*
X67503116Y-63183635D01*
X67496576Y-63189753D01*
X67492462Y-63190500D01*
X66507538Y-63190500D01*
X66499265Y-63187073D01*
X66496884Y-63183635D01*
X65086578Y-60076224D01*
X65086279Y-60067275D01*
X65092397Y-60060735D01*
X65093919Y-60060168D01*
X66996699Y-59500471D01*
X67003301Y-59500471D01*
X68906069Y-60060165D01*
G37*
%TD.AperFunction*%
%TD*%
%TA.AperFunction,Conductor*%
%TO.N,Board_31-Net-(J2-Pin_1)*%
G36*
X59500735Y-70813927D02*
G01*
X59503116Y-70817365D01*
X60913421Y-73924775D01*
X60913720Y-73933724D01*
X60907602Y-73940264D01*
X60906069Y-73940834D01*
X59003302Y-74500528D01*
X58996698Y-74500528D01*
X57093930Y-73940834D01*
X57086960Y-73935212D01*
X57086008Y-73926308D01*
X57086578Y-73924775D01*
X58496884Y-70817365D01*
X58503424Y-70811247D01*
X58507538Y-70810500D01*
X59492462Y-70810500D01*
X59500735Y-70813927D01*
G37*
%TD.AperFunction*%
%TD*%
%TA.AperFunction,Conductor*%
%TO.N,Board_31-Net-(J2-Pin_1)*%
G36*
X59785920Y-70990482D02*
G01*
X59794188Y-70993919D01*
X59797605Y-71002197D01*
X59797405Y-71004338D01*
X59501790Y-72580956D01*
X59496897Y-72588456D01*
X59490290Y-72590500D01*
X58509710Y-72590500D01*
X58501437Y-72587073D01*
X58498210Y-72580956D01*
X58202594Y-71004336D01*
X58204438Y-70995575D01*
X58211938Y-70990682D01*
X58214074Y-70990482D01*
X59000000Y-70989500D01*
X59785920Y-70990482D01*
G37*
%TD.AperFunction*%
%TD*%
%TA.AperFunction,Conductor*%
%TO.N,Board_31-Net-(J1-Pin_1)*%
G36*
X60906069Y-60060165D02*
G01*
X60913039Y-60065787D01*
X60913991Y-60074691D01*
X60913421Y-60076224D01*
X59503116Y-63183635D01*
X59496576Y-63189753D01*
X59492462Y-63190500D01*
X58507538Y-63190500D01*
X58499265Y-63187073D01*
X58496884Y-63183635D01*
X57086578Y-60076224D01*
X57086279Y-60067275D01*
X57092397Y-60060735D01*
X57093919Y-60060168D01*
X58996699Y-59500471D01*
X59003301Y-59500471D01*
X60906069Y-60060165D01*
G37*
%TD.AperFunction*%
%TD*%
%TA.AperFunction,Conductor*%
%TO.N,Board_30-Net-(J2-Pin_1)*%
G36*
X51785920Y-70990482D02*
G01*
X51794188Y-70993919D01*
X51797605Y-71002197D01*
X51797405Y-71004338D01*
X51501790Y-72580956D01*
X51496897Y-72588456D01*
X51490290Y-72590500D01*
X50509710Y-72590500D01*
X50501437Y-72587073D01*
X50498210Y-72580956D01*
X50202594Y-71004336D01*
X50204438Y-70995575D01*
X50211938Y-70990682D01*
X50214074Y-70990482D01*
X51000000Y-70989500D01*
X51785920Y-70990482D01*
G37*
%TD.AperFunction*%
%TD*%
%TA.AperFunction,Conductor*%
%TO.N,Board_30-Net-(J2-Pin_1)*%
G36*
X51500735Y-70813927D02*
G01*
X51503116Y-70817365D01*
X52913421Y-73924775D01*
X52913720Y-73933724D01*
X52907602Y-73940264D01*
X52906069Y-73940834D01*
X51003302Y-74500528D01*
X50996698Y-74500528D01*
X49093930Y-73940834D01*
X49086960Y-73935212D01*
X49086008Y-73926308D01*
X49086578Y-73924775D01*
X50496884Y-70817365D01*
X50503424Y-70811247D01*
X50507538Y-70810500D01*
X51492462Y-70810500D01*
X51500735Y-70813927D01*
G37*
%TD.AperFunction*%
%TD*%
%TA.AperFunction,Conductor*%
%TO.N,Board_30-Net-(J1-Pin_1)*%
G36*
X52906069Y-60060165D02*
G01*
X52913039Y-60065787D01*
X52913991Y-60074691D01*
X52913421Y-60076224D01*
X51503116Y-63183635D01*
X51496576Y-63189753D01*
X51492462Y-63190500D01*
X50507538Y-63190500D01*
X50499265Y-63187073D01*
X50496884Y-63183635D01*
X49086578Y-60076224D01*
X49086279Y-60067275D01*
X49092397Y-60060735D01*
X49093919Y-60060168D01*
X50996699Y-59500471D01*
X51003301Y-59500471D01*
X52906069Y-60060165D01*
G37*
%TD.AperFunction*%
%TD*%
%TA.AperFunction,Conductor*%
%TO.N,Board_29-Net-(J2-Pin_1)*%
G36*
X43785920Y-70990482D02*
G01*
X43794188Y-70993919D01*
X43797605Y-71002197D01*
X43797405Y-71004338D01*
X43501790Y-72580956D01*
X43496897Y-72588456D01*
X43490290Y-72590500D01*
X42509710Y-72590500D01*
X42501437Y-72587073D01*
X42498210Y-72580956D01*
X42202594Y-71004336D01*
X42204438Y-70995575D01*
X42211938Y-70990682D01*
X42214074Y-70990482D01*
X43000000Y-70989500D01*
X43785920Y-70990482D01*
G37*
%TD.AperFunction*%
%TD*%
%TA.AperFunction,Conductor*%
%TO.N,Board_29-Net-(J2-Pin_1)*%
G36*
X43500735Y-70813927D02*
G01*
X43503116Y-70817365D01*
X44913421Y-73924775D01*
X44913720Y-73933724D01*
X44907602Y-73940264D01*
X44906069Y-73940834D01*
X43003302Y-74500528D01*
X42996698Y-74500528D01*
X41093930Y-73940834D01*
X41086960Y-73935212D01*
X41086008Y-73926308D01*
X41086578Y-73924775D01*
X42496884Y-70817365D01*
X42503424Y-70811247D01*
X42507538Y-70810500D01*
X43492462Y-70810500D01*
X43500735Y-70813927D01*
G37*
%TD.AperFunction*%
%TD*%
%TA.AperFunction,Conductor*%
%TO.N,Board_29-Net-(J1-Pin_1)*%
G36*
X44906069Y-60060165D02*
G01*
X44913039Y-60065787D01*
X44913991Y-60074691D01*
X44913421Y-60076224D01*
X43503116Y-63183635D01*
X43496576Y-63189753D01*
X43492462Y-63190500D01*
X42507538Y-63190500D01*
X42499265Y-63187073D01*
X42496884Y-63183635D01*
X41086578Y-60076224D01*
X41086279Y-60067275D01*
X41092397Y-60060735D01*
X41093919Y-60060168D01*
X42996699Y-59500471D01*
X43003301Y-59500471D01*
X44906069Y-60060165D01*
G37*
%TD.AperFunction*%
%TD*%
%TA.AperFunction,Conductor*%
%TO.N,Board_28-Net-(J2-Pin_1)*%
G36*
X35785920Y-70990482D02*
G01*
X35794188Y-70993919D01*
X35797605Y-71002197D01*
X35797405Y-71004338D01*
X35501790Y-72580956D01*
X35496897Y-72588456D01*
X35490290Y-72590500D01*
X34509710Y-72590500D01*
X34501437Y-72587073D01*
X34498210Y-72580956D01*
X34202594Y-71004336D01*
X34204438Y-70995575D01*
X34211938Y-70990682D01*
X34214074Y-70990482D01*
X35000000Y-70989500D01*
X35785920Y-70990482D01*
G37*
%TD.AperFunction*%
%TD*%
%TA.AperFunction,Conductor*%
%TO.N,Board_28-Net-(J2-Pin_1)*%
G36*
X35500735Y-70813927D02*
G01*
X35503116Y-70817365D01*
X36913421Y-73924775D01*
X36913720Y-73933724D01*
X36907602Y-73940264D01*
X36906069Y-73940834D01*
X35003302Y-74500528D01*
X34996698Y-74500528D01*
X33093930Y-73940834D01*
X33086960Y-73935212D01*
X33086008Y-73926308D01*
X33086578Y-73924775D01*
X34496884Y-70817365D01*
X34503424Y-70811247D01*
X34507538Y-70810500D01*
X35492462Y-70810500D01*
X35500735Y-70813927D01*
G37*
%TD.AperFunction*%
%TD*%
%TA.AperFunction,Conductor*%
%TO.N,Board_28-Net-(J1-Pin_1)*%
G36*
X36906069Y-60060165D02*
G01*
X36913039Y-60065787D01*
X36913991Y-60074691D01*
X36913421Y-60076224D01*
X35503116Y-63183635D01*
X35496576Y-63189753D01*
X35492462Y-63190500D01*
X34507538Y-63190500D01*
X34499265Y-63187073D01*
X34496884Y-63183635D01*
X33086578Y-60076224D01*
X33086279Y-60067275D01*
X33092397Y-60060735D01*
X33093919Y-60060168D01*
X34996699Y-59500471D01*
X35003301Y-59500471D01*
X36906069Y-60060165D01*
G37*
%TD.AperFunction*%
%TD*%
%TA.AperFunction,Conductor*%
%TO.N,Board_27-Net-(J2-Pin_1)*%
G36*
X27785920Y-70990482D02*
G01*
X27794188Y-70993919D01*
X27797605Y-71002197D01*
X27797405Y-71004338D01*
X27501790Y-72580956D01*
X27496897Y-72588456D01*
X27490290Y-72590500D01*
X26509710Y-72590500D01*
X26501437Y-72587073D01*
X26498210Y-72580956D01*
X26202594Y-71004336D01*
X26204438Y-70995575D01*
X26211938Y-70990682D01*
X26214074Y-70990482D01*
X27000000Y-70989500D01*
X27785920Y-70990482D01*
G37*
%TD.AperFunction*%
%TD*%
%TA.AperFunction,Conductor*%
%TO.N,Board_27-Net-(J2-Pin_1)*%
G36*
X27500735Y-70813927D02*
G01*
X27503116Y-70817365D01*
X28913421Y-73924775D01*
X28913720Y-73933724D01*
X28907602Y-73940264D01*
X28906069Y-73940834D01*
X27003302Y-74500528D01*
X26996698Y-74500528D01*
X25093930Y-73940834D01*
X25086960Y-73935212D01*
X25086008Y-73926308D01*
X25086578Y-73924775D01*
X26496884Y-70817365D01*
X26503424Y-70811247D01*
X26507538Y-70810500D01*
X27492462Y-70810500D01*
X27500735Y-70813927D01*
G37*
%TD.AperFunction*%
%TD*%
%TA.AperFunction,Conductor*%
%TO.N,Board_27-Net-(J1-Pin_1)*%
G36*
X28906069Y-60060165D02*
G01*
X28913039Y-60065787D01*
X28913991Y-60074691D01*
X28913421Y-60076224D01*
X27503116Y-63183635D01*
X27496576Y-63189753D01*
X27492462Y-63190500D01*
X26507538Y-63190500D01*
X26499265Y-63187073D01*
X26496884Y-63183635D01*
X25086578Y-60076224D01*
X25086279Y-60067275D01*
X25092397Y-60060735D01*
X25093919Y-60060168D01*
X26996699Y-59500471D01*
X27003301Y-59500471D01*
X28906069Y-60060165D01*
G37*
%TD.AperFunction*%
%TD*%
%TA.AperFunction,Conductor*%
%TO.N,Board_26-Net-(J2-Pin_1)*%
G36*
X19785920Y-70990482D02*
G01*
X19794188Y-70993919D01*
X19797605Y-71002197D01*
X19797405Y-71004338D01*
X19501790Y-72580956D01*
X19496897Y-72588456D01*
X19490290Y-72590500D01*
X18509710Y-72590500D01*
X18501437Y-72587073D01*
X18498210Y-72580956D01*
X18202594Y-71004336D01*
X18204438Y-70995575D01*
X18211938Y-70990682D01*
X18214074Y-70990482D01*
X19000000Y-70989500D01*
X19785920Y-70990482D01*
G37*
%TD.AperFunction*%
%TD*%
%TA.AperFunction,Conductor*%
%TO.N,Board_26-Net-(J2-Pin_1)*%
G36*
X19500735Y-70813927D02*
G01*
X19503116Y-70817365D01*
X20913421Y-73924775D01*
X20913720Y-73933724D01*
X20907602Y-73940264D01*
X20906069Y-73940834D01*
X19003302Y-74500528D01*
X18996698Y-74500528D01*
X17093930Y-73940834D01*
X17086960Y-73935212D01*
X17086008Y-73926308D01*
X17086578Y-73924775D01*
X18496884Y-70817365D01*
X18503424Y-70811247D01*
X18507538Y-70810500D01*
X19492462Y-70810500D01*
X19500735Y-70813927D01*
G37*
%TD.AperFunction*%
%TD*%
%TA.AperFunction,Conductor*%
%TO.N,Board_26-Net-(J1-Pin_1)*%
G36*
X20906069Y-60060165D02*
G01*
X20913039Y-60065787D01*
X20913991Y-60074691D01*
X20913421Y-60076224D01*
X19503116Y-63183635D01*
X19496576Y-63189753D01*
X19492462Y-63190500D01*
X18507538Y-63190500D01*
X18499265Y-63187073D01*
X18496884Y-63183635D01*
X17086578Y-60076224D01*
X17086279Y-60067275D01*
X17092397Y-60060735D01*
X17093919Y-60060168D01*
X18996699Y-59500471D01*
X19003301Y-59500471D01*
X20906069Y-60060165D01*
G37*
%TD.AperFunction*%
%TD*%
%TA.AperFunction,Conductor*%
%TO.N,Board_25-Net-(J2-Pin_1)*%
G36*
X11785920Y-70990482D02*
G01*
X11794188Y-70993919D01*
X11797605Y-71002197D01*
X11797405Y-71004338D01*
X11501790Y-72580956D01*
X11496897Y-72588456D01*
X11490290Y-72590500D01*
X10509710Y-72590500D01*
X10501437Y-72587073D01*
X10498210Y-72580956D01*
X10202594Y-71004336D01*
X10204438Y-70995575D01*
X10211938Y-70990682D01*
X10214074Y-70990482D01*
X11000000Y-70989500D01*
X11785920Y-70990482D01*
G37*
%TD.AperFunction*%
%TD*%
%TA.AperFunction,Conductor*%
%TO.N,Board_25-Net-(J2-Pin_1)*%
G36*
X11500735Y-70813927D02*
G01*
X11503116Y-70817365D01*
X12913421Y-73924775D01*
X12913720Y-73933724D01*
X12907602Y-73940264D01*
X12906069Y-73940834D01*
X11003302Y-74500528D01*
X10996698Y-74500528D01*
X9093930Y-73940834D01*
X9086960Y-73935212D01*
X9086008Y-73926308D01*
X9086578Y-73924775D01*
X10496884Y-70817365D01*
X10503424Y-70811247D01*
X10507538Y-70810500D01*
X11492462Y-70810500D01*
X11500735Y-70813927D01*
G37*
%TD.AperFunction*%
%TD*%
%TA.AperFunction,Conductor*%
%TO.N,Board_25-Net-(J1-Pin_1)*%
G36*
X12906069Y-60060165D02*
G01*
X12913039Y-60065787D01*
X12913991Y-60074691D01*
X12913421Y-60076224D01*
X11503116Y-63183635D01*
X11496576Y-63189753D01*
X11492462Y-63190500D01*
X10507538Y-63190500D01*
X10499265Y-63187073D01*
X10496884Y-63183635D01*
X9086578Y-60076224D01*
X9086279Y-60067275D01*
X9092397Y-60060735D01*
X9093919Y-60060168D01*
X10996699Y-59500471D01*
X11003301Y-59500471D01*
X12906069Y-60060165D01*
G37*
%TD.AperFunction*%
%TD*%
%TA.AperFunction,Conductor*%
%TO.N,Board_24-Net-(J2-Pin_1)*%
G36*
X3500735Y-70813927D02*
G01*
X3503116Y-70817365D01*
X4913421Y-73924775D01*
X4913720Y-73933724D01*
X4907602Y-73940264D01*
X4906069Y-73940834D01*
X3003302Y-74500528D01*
X2996698Y-74500528D01*
X1093930Y-73940834D01*
X1086960Y-73935212D01*
X1086008Y-73926308D01*
X1086578Y-73924775D01*
X2496884Y-70817365D01*
X2503424Y-70811247D01*
X2507538Y-70810500D01*
X3492462Y-70810500D01*
X3500735Y-70813927D01*
G37*
%TD.AperFunction*%
%TD*%
%TA.AperFunction,Conductor*%
%TO.N,Board_24-Net-(J2-Pin_1)*%
G36*
X3785920Y-70990482D02*
G01*
X3794188Y-70993919D01*
X3797605Y-71002197D01*
X3797405Y-71004338D01*
X3501790Y-72580956D01*
X3496897Y-72588456D01*
X3490290Y-72590500D01*
X2509710Y-72590500D01*
X2501437Y-72587073D01*
X2498210Y-72580956D01*
X2202594Y-71004336D01*
X2204438Y-70995575D01*
X2211938Y-70990682D01*
X2214074Y-70990482D01*
X3000000Y-70989500D01*
X3785920Y-70990482D01*
G37*
%TD.AperFunction*%
%TD*%
%TA.AperFunction,Conductor*%
%TO.N,Board_24-Net-(J1-Pin_1)*%
G36*
X4906069Y-60060165D02*
G01*
X4913039Y-60065787D01*
X4913991Y-60074691D01*
X4913421Y-60076224D01*
X3503116Y-63183635D01*
X3496576Y-63189753D01*
X3492462Y-63190500D01*
X2507538Y-63190500D01*
X2499265Y-63187073D01*
X2496884Y-63183635D01*
X1086578Y-60076224D01*
X1086279Y-60067275D01*
X1092397Y-60060735D01*
X1093919Y-60060168D01*
X2996699Y-59500471D01*
X3003301Y-59500471D01*
X4906069Y-60060165D01*
G37*
%TD.AperFunction*%
%TD*%
%TA.AperFunction,Conductor*%
%TO.N,Board_23-Net-(J2-Pin_1)*%
G36*
X91500735Y-46813927D02*
G01*
X91503116Y-46817365D01*
X92913421Y-49924775D01*
X92913720Y-49933724D01*
X92907602Y-49940264D01*
X92906069Y-49940834D01*
X91003302Y-50500528D01*
X90996698Y-50500528D01*
X89093930Y-49940834D01*
X89086960Y-49935212D01*
X89086008Y-49926308D01*
X89086578Y-49924775D01*
X90496884Y-46817365D01*
X90503424Y-46811247D01*
X90507538Y-46810500D01*
X91492462Y-46810500D01*
X91500735Y-46813927D01*
G37*
%TD.AperFunction*%
%TD*%
%TA.AperFunction,Conductor*%
%TO.N,Board_23-Net-(J2-Pin_1)*%
G36*
X91785920Y-46990482D02*
G01*
X91794188Y-46993919D01*
X91797605Y-47002197D01*
X91797405Y-47004338D01*
X91501790Y-48580956D01*
X91496897Y-48588456D01*
X91490290Y-48590500D01*
X90509710Y-48590500D01*
X90501437Y-48587073D01*
X90498210Y-48580956D01*
X90202594Y-47004336D01*
X90204438Y-46995575D01*
X90211938Y-46990682D01*
X90214074Y-46990482D01*
X91000000Y-46989500D01*
X91785920Y-46990482D01*
G37*
%TD.AperFunction*%
%TD*%
%TA.AperFunction,Conductor*%
%TO.N,Board_23-Net-(J1-Pin_1)*%
G36*
X92906069Y-36060165D02*
G01*
X92913039Y-36065787D01*
X92913991Y-36074691D01*
X92913421Y-36076224D01*
X91503116Y-39183635D01*
X91496576Y-39189753D01*
X91492462Y-39190500D01*
X90507538Y-39190500D01*
X90499265Y-39187073D01*
X90496884Y-39183635D01*
X89086578Y-36076224D01*
X89086279Y-36067275D01*
X89092397Y-36060735D01*
X89093919Y-36060168D01*
X90996699Y-35500471D01*
X91003301Y-35500471D01*
X92906069Y-36060165D01*
G37*
%TD.AperFunction*%
%TD*%
%TA.AperFunction,Conductor*%
%TO.N,Board_22-Net-(J2-Pin_1)*%
G36*
X83785920Y-46990482D02*
G01*
X83794188Y-46993919D01*
X83797605Y-47002197D01*
X83797405Y-47004338D01*
X83501790Y-48580956D01*
X83496897Y-48588456D01*
X83490290Y-48590500D01*
X82509710Y-48590500D01*
X82501437Y-48587073D01*
X82498210Y-48580956D01*
X82202594Y-47004336D01*
X82204438Y-46995575D01*
X82211938Y-46990682D01*
X82214074Y-46990482D01*
X83000000Y-46989500D01*
X83785920Y-46990482D01*
G37*
%TD.AperFunction*%
%TD*%
%TA.AperFunction,Conductor*%
%TO.N,Board_22-Net-(J2-Pin_1)*%
G36*
X83500735Y-46813927D02*
G01*
X83503116Y-46817365D01*
X84913421Y-49924775D01*
X84913720Y-49933724D01*
X84907602Y-49940264D01*
X84906069Y-49940834D01*
X83003302Y-50500528D01*
X82996698Y-50500528D01*
X81093930Y-49940834D01*
X81086960Y-49935212D01*
X81086008Y-49926308D01*
X81086578Y-49924775D01*
X82496884Y-46817365D01*
X82503424Y-46811247D01*
X82507538Y-46810500D01*
X83492462Y-46810500D01*
X83500735Y-46813927D01*
G37*
%TD.AperFunction*%
%TD*%
%TA.AperFunction,Conductor*%
%TO.N,Board_22-Net-(J1-Pin_1)*%
G36*
X84906069Y-36060165D02*
G01*
X84913039Y-36065787D01*
X84913991Y-36074691D01*
X84913421Y-36076224D01*
X83503116Y-39183635D01*
X83496576Y-39189753D01*
X83492462Y-39190500D01*
X82507538Y-39190500D01*
X82499265Y-39187073D01*
X82496884Y-39183635D01*
X81086578Y-36076224D01*
X81086279Y-36067275D01*
X81092397Y-36060735D01*
X81093919Y-36060168D01*
X82996699Y-35500471D01*
X83003301Y-35500471D01*
X84906069Y-36060165D01*
G37*
%TD.AperFunction*%
%TD*%
%TA.AperFunction,Conductor*%
%TO.N,Board_21-Net-(J2-Pin_1)*%
G36*
X75785920Y-46990482D02*
G01*
X75794188Y-46993919D01*
X75797605Y-47002197D01*
X75797405Y-47004338D01*
X75501790Y-48580956D01*
X75496897Y-48588456D01*
X75490290Y-48590500D01*
X74509710Y-48590500D01*
X74501437Y-48587073D01*
X74498210Y-48580956D01*
X74202594Y-47004336D01*
X74204438Y-46995575D01*
X74211938Y-46990682D01*
X74214074Y-46990482D01*
X75000000Y-46989500D01*
X75785920Y-46990482D01*
G37*
%TD.AperFunction*%
%TD*%
%TA.AperFunction,Conductor*%
%TO.N,Board_21-Net-(J2-Pin_1)*%
G36*
X75500735Y-46813927D02*
G01*
X75503116Y-46817365D01*
X76913421Y-49924775D01*
X76913720Y-49933724D01*
X76907602Y-49940264D01*
X76906069Y-49940834D01*
X75003302Y-50500528D01*
X74996698Y-50500528D01*
X73093930Y-49940834D01*
X73086960Y-49935212D01*
X73086008Y-49926308D01*
X73086578Y-49924775D01*
X74496884Y-46817365D01*
X74503424Y-46811247D01*
X74507538Y-46810500D01*
X75492462Y-46810500D01*
X75500735Y-46813927D01*
G37*
%TD.AperFunction*%
%TD*%
%TA.AperFunction,Conductor*%
%TO.N,Board_21-Net-(J1-Pin_1)*%
G36*
X76906069Y-36060165D02*
G01*
X76913039Y-36065787D01*
X76913991Y-36074691D01*
X76913421Y-36076224D01*
X75503116Y-39183635D01*
X75496576Y-39189753D01*
X75492462Y-39190500D01*
X74507538Y-39190500D01*
X74499265Y-39187073D01*
X74496884Y-39183635D01*
X73086578Y-36076224D01*
X73086279Y-36067275D01*
X73092397Y-36060735D01*
X73093919Y-36060168D01*
X74996699Y-35500471D01*
X75003301Y-35500471D01*
X76906069Y-36060165D01*
G37*
%TD.AperFunction*%
%TD*%
%TA.AperFunction,Conductor*%
%TO.N,Board_20-Net-(J2-Pin_1)*%
G36*
X67785920Y-46990482D02*
G01*
X67794188Y-46993919D01*
X67797605Y-47002197D01*
X67797405Y-47004338D01*
X67501790Y-48580956D01*
X67496897Y-48588456D01*
X67490290Y-48590500D01*
X66509710Y-48590500D01*
X66501437Y-48587073D01*
X66498210Y-48580956D01*
X66202594Y-47004336D01*
X66204438Y-46995575D01*
X66211938Y-46990682D01*
X66214074Y-46990482D01*
X67000000Y-46989500D01*
X67785920Y-46990482D01*
G37*
%TD.AperFunction*%
%TD*%
%TA.AperFunction,Conductor*%
%TO.N,Board_20-Net-(J2-Pin_1)*%
G36*
X67500735Y-46813927D02*
G01*
X67503116Y-46817365D01*
X68913421Y-49924775D01*
X68913720Y-49933724D01*
X68907602Y-49940264D01*
X68906069Y-49940834D01*
X67003302Y-50500528D01*
X66996698Y-50500528D01*
X65093930Y-49940834D01*
X65086960Y-49935212D01*
X65086008Y-49926308D01*
X65086578Y-49924775D01*
X66496884Y-46817365D01*
X66503424Y-46811247D01*
X66507538Y-46810500D01*
X67492462Y-46810500D01*
X67500735Y-46813927D01*
G37*
%TD.AperFunction*%
%TD*%
%TA.AperFunction,Conductor*%
%TO.N,Board_20-Net-(J1-Pin_1)*%
G36*
X68906069Y-36060165D02*
G01*
X68913039Y-36065787D01*
X68913991Y-36074691D01*
X68913421Y-36076224D01*
X67503116Y-39183635D01*
X67496576Y-39189753D01*
X67492462Y-39190500D01*
X66507538Y-39190500D01*
X66499265Y-39187073D01*
X66496884Y-39183635D01*
X65086578Y-36076224D01*
X65086279Y-36067275D01*
X65092397Y-36060735D01*
X65093919Y-36060168D01*
X66996699Y-35500471D01*
X67003301Y-35500471D01*
X68906069Y-36060165D01*
G37*
%TD.AperFunction*%
%TD*%
%TA.AperFunction,Conductor*%
%TO.N,Board_19-Net-(J2-Pin_1)*%
G36*
X59500735Y-46813927D02*
G01*
X59503116Y-46817365D01*
X60913421Y-49924775D01*
X60913720Y-49933724D01*
X60907602Y-49940264D01*
X60906069Y-49940834D01*
X59003302Y-50500528D01*
X58996698Y-50500528D01*
X57093930Y-49940834D01*
X57086960Y-49935212D01*
X57086008Y-49926308D01*
X57086578Y-49924775D01*
X58496884Y-46817365D01*
X58503424Y-46811247D01*
X58507538Y-46810500D01*
X59492462Y-46810500D01*
X59500735Y-46813927D01*
G37*
%TD.AperFunction*%
%TD*%
%TA.AperFunction,Conductor*%
%TO.N,Board_19-Net-(J2-Pin_1)*%
G36*
X59785920Y-46990482D02*
G01*
X59794188Y-46993919D01*
X59797605Y-47002197D01*
X59797405Y-47004338D01*
X59501790Y-48580956D01*
X59496897Y-48588456D01*
X59490290Y-48590500D01*
X58509710Y-48590500D01*
X58501437Y-48587073D01*
X58498210Y-48580956D01*
X58202594Y-47004336D01*
X58204438Y-46995575D01*
X58211938Y-46990682D01*
X58214074Y-46990482D01*
X59000000Y-46989500D01*
X59785920Y-46990482D01*
G37*
%TD.AperFunction*%
%TD*%
%TA.AperFunction,Conductor*%
%TO.N,Board_19-Net-(J1-Pin_1)*%
G36*
X60906069Y-36060165D02*
G01*
X60913039Y-36065787D01*
X60913991Y-36074691D01*
X60913421Y-36076224D01*
X59503116Y-39183635D01*
X59496576Y-39189753D01*
X59492462Y-39190500D01*
X58507538Y-39190500D01*
X58499265Y-39187073D01*
X58496884Y-39183635D01*
X57086578Y-36076224D01*
X57086279Y-36067275D01*
X57092397Y-36060735D01*
X57093919Y-36060168D01*
X58996699Y-35500471D01*
X59003301Y-35500471D01*
X60906069Y-36060165D01*
G37*
%TD.AperFunction*%
%TD*%
%TA.AperFunction,Conductor*%
%TO.N,Board_18-Net-(J2-Pin_1)*%
G36*
X51500735Y-46813927D02*
G01*
X51503116Y-46817365D01*
X52913421Y-49924775D01*
X52913720Y-49933724D01*
X52907602Y-49940264D01*
X52906069Y-49940834D01*
X51003302Y-50500528D01*
X50996698Y-50500528D01*
X49093930Y-49940834D01*
X49086960Y-49935212D01*
X49086008Y-49926308D01*
X49086578Y-49924775D01*
X50496884Y-46817365D01*
X50503424Y-46811247D01*
X50507538Y-46810500D01*
X51492462Y-46810500D01*
X51500735Y-46813927D01*
G37*
%TD.AperFunction*%
%TD*%
%TA.AperFunction,Conductor*%
%TO.N,Board_18-Net-(J2-Pin_1)*%
G36*
X51785920Y-46990482D02*
G01*
X51794188Y-46993919D01*
X51797605Y-47002197D01*
X51797405Y-47004338D01*
X51501790Y-48580956D01*
X51496897Y-48588456D01*
X51490290Y-48590500D01*
X50509710Y-48590500D01*
X50501437Y-48587073D01*
X50498210Y-48580956D01*
X50202594Y-47004336D01*
X50204438Y-46995575D01*
X50211938Y-46990682D01*
X50214074Y-46990482D01*
X51000000Y-46989500D01*
X51785920Y-46990482D01*
G37*
%TD.AperFunction*%
%TD*%
%TA.AperFunction,Conductor*%
%TO.N,Board_18-Net-(J1-Pin_1)*%
G36*
X52906069Y-36060165D02*
G01*
X52913039Y-36065787D01*
X52913991Y-36074691D01*
X52913421Y-36076224D01*
X51503116Y-39183635D01*
X51496576Y-39189753D01*
X51492462Y-39190500D01*
X50507538Y-39190500D01*
X50499265Y-39187073D01*
X50496884Y-39183635D01*
X49086578Y-36076224D01*
X49086279Y-36067275D01*
X49092397Y-36060735D01*
X49093919Y-36060168D01*
X50996699Y-35500471D01*
X51003301Y-35500471D01*
X52906069Y-36060165D01*
G37*
%TD.AperFunction*%
%TD*%
%TA.AperFunction,Conductor*%
%TO.N,Board_17-Net-(J2-Pin_1)*%
G36*
X43500735Y-46813927D02*
G01*
X43503116Y-46817365D01*
X44913421Y-49924775D01*
X44913720Y-49933724D01*
X44907602Y-49940264D01*
X44906069Y-49940834D01*
X43003302Y-50500528D01*
X42996698Y-50500528D01*
X41093930Y-49940834D01*
X41086960Y-49935212D01*
X41086008Y-49926308D01*
X41086578Y-49924775D01*
X42496884Y-46817365D01*
X42503424Y-46811247D01*
X42507538Y-46810500D01*
X43492462Y-46810500D01*
X43500735Y-46813927D01*
G37*
%TD.AperFunction*%
%TD*%
%TA.AperFunction,Conductor*%
%TO.N,Board_17-Net-(J2-Pin_1)*%
G36*
X43785920Y-46990482D02*
G01*
X43794188Y-46993919D01*
X43797605Y-47002197D01*
X43797405Y-47004338D01*
X43501790Y-48580956D01*
X43496897Y-48588456D01*
X43490290Y-48590500D01*
X42509710Y-48590500D01*
X42501437Y-48587073D01*
X42498210Y-48580956D01*
X42202594Y-47004336D01*
X42204438Y-46995575D01*
X42211938Y-46990682D01*
X42214074Y-46990482D01*
X43000000Y-46989500D01*
X43785920Y-46990482D01*
G37*
%TD.AperFunction*%
%TD*%
%TA.AperFunction,Conductor*%
%TO.N,Board_17-Net-(J1-Pin_1)*%
G36*
X44906069Y-36060165D02*
G01*
X44913039Y-36065787D01*
X44913991Y-36074691D01*
X44913421Y-36076224D01*
X43503116Y-39183635D01*
X43496576Y-39189753D01*
X43492462Y-39190500D01*
X42507538Y-39190500D01*
X42499265Y-39187073D01*
X42496884Y-39183635D01*
X41086578Y-36076224D01*
X41086279Y-36067275D01*
X41092397Y-36060735D01*
X41093919Y-36060168D01*
X42996699Y-35500471D01*
X43003301Y-35500471D01*
X44906069Y-36060165D01*
G37*
%TD.AperFunction*%
%TD*%
%TA.AperFunction,Conductor*%
%TO.N,Board_16-Net-(J2-Pin_1)*%
G36*
X35785920Y-46990482D02*
G01*
X35794188Y-46993919D01*
X35797605Y-47002197D01*
X35797405Y-47004338D01*
X35501790Y-48580956D01*
X35496897Y-48588456D01*
X35490290Y-48590500D01*
X34509710Y-48590500D01*
X34501437Y-48587073D01*
X34498210Y-48580956D01*
X34202594Y-47004336D01*
X34204438Y-46995575D01*
X34211938Y-46990682D01*
X34214074Y-46990482D01*
X35000000Y-46989500D01*
X35785920Y-46990482D01*
G37*
%TD.AperFunction*%
%TD*%
%TA.AperFunction,Conductor*%
%TO.N,Board_16-Net-(J2-Pin_1)*%
G36*
X35500735Y-46813927D02*
G01*
X35503116Y-46817365D01*
X36913421Y-49924775D01*
X36913720Y-49933724D01*
X36907602Y-49940264D01*
X36906069Y-49940834D01*
X35003302Y-50500528D01*
X34996698Y-50500528D01*
X33093930Y-49940834D01*
X33086960Y-49935212D01*
X33086008Y-49926308D01*
X33086578Y-49924775D01*
X34496884Y-46817365D01*
X34503424Y-46811247D01*
X34507538Y-46810500D01*
X35492462Y-46810500D01*
X35500735Y-46813927D01*
G37*
%TD.AperFunction*%
%TD*%
%TA.AperFunction,Conductor*%
%TO.N,Board_16-Net-(J1-Pin_1)*%
G36*
X36906069Y-36060165D02*
G01*
X36913039Y-36065787D01*
X36913991Y-36074691D01*
X36913421Y-36076224D01*
X35503116Y-39183635D01*
X35496576Y-39189753D01*
X35492462Y-39190500D01*
X34507538Y-39190500D01*
X34499265Y-39187073D01*
X34496884Y-39183635D01*
X33086578Y-36076224D01*
X33086279Y-36067275D01*
X33092397Y-36060735D01*
X33093919Y-36060168D01*
X34996699Y-35500471D01*
X35003301Y-35500471D01*
X36906069Y-36060165D01*
G37*
%TD.AperFunction*%
%TD*%
%TA.AperFunction,Conductor*%
%TO.N,Board_15-Net-(J2-Pin_1)*%
G36*
X27500735Y-46813927D02*
G01*
X27503116Y-46817365D01*
X28913421Y-49924775D01*
X28913720Y-49933724D01*
X28907602Y-49940264D01*
X28906069Y-49940834D01*
X27003302Y-50500528D01*
X26996698Y-50500528D01*
X25093930Y-49940834D01*
X25086960Y-49935212D01*
X25086008Y-49926308D01*
X25086578Y-49924775D01*
X26496884Y-46817365D01*
X26503424Y-46811247D01*
X26507538Y-46810500D01*
X27492462Y-46810500D01*
X27500735Y-46813927D01*
G37*
%TD.AperFunction*%
%TD*%
%TA.AperFunction,Conductor*%
%TO.N,Board_15-Net-(J2-Pin_1)*%
G36*
X27785920Y-46990482D02*
G01*
X27794188Y-46993919D01*
X27797605Y-47002197D01*
X27797405Y-47004338D01*
X27501790Y-48580956D01*
X27496897Y-48588456D01*
X27490290Y-48590500D01*
X26509710Y-48590500D01*
X26501437Y-48587073D01*
X26498210Y-48580956D01*
X26202594Y-47004336D01*
X26204438Y-46995575D01*
X26211938Y-46990682D01*
X26214074Y-46990482D01*
X27000000Y-46989500D01*
X27785920Y-46990482D01*
G37*
%TD.AperFunction*%
%TD*%
%TA.AperFunction,Conductor*%
%TO.N,Board_15-Net-(J1-Pin_1)*%
G36*
X28906069Y-36060165D02*
G01*
X28913039Y-36065787D01*
X28913991Y-36074691D01*
X28913421Y-36076224D01*
X27503116Y-39183635D01*
X27496576Y-39189753D01*
X27492462Y-39190500D01*
X26507538Y-39190500D01*
X26499265Y-39187073D01*
X26496884Y-39183635D01*
X25086578Y-36076224D01*
X25086279Y-36067275D01*
X25092397Y-36060735D01*
X25093919Y-36060168D01*
X26996699Y-35500471D01*
X27003301Y-35500471D01*
X28906069Y-36060165D01*
G37*
%TD.AperFunction*%
%TD*%
%TA.AperFunction,Conductor*%
%TO.N,Board_14-Net-(J2-Pin_1)*%
G36*
X19500735Y-46813927D02*
G01*
X19503116Y-46817365D01*
X20913421Y-49924775D01*
X20913720Y-49933724D01*
X20907602Y-49940264D01*
X20906069Y-49940834D01*
X19003302Y-50500528D01*
X18996698Y-50500528D01*
X17093930Y-49940834D01*
X17086960Y-49935212D01*
X17086008Y-49926308D01*
X17086578Y-49924775D01*
X18496884Y-46817365D01*
X18503424Y-46811247D01*
X18507538Y-46810500D01*
X19492462Y-46810500D01*
X19500735Y-46813927D01*
G37*
%TD.AperFunction*%
%TD*%
%TA.AperFunction,Conductor*%
%TO.N,Board_14-Net-(J2-Pin_1)*%
G36*
X19785920Y-46990482D02*
G01*
X19794188Y-46993919D01*
X19797605Y-47002197D01*
X19797405Y-47004338D01*
X19501790Y-48580956D01*
X19496897Y-48588456D01*
X19490290Y-48590500D01*
X18509710Y-48590500D01*
X18501437Y-48587073D01*
X18498210Y-48580956D01*
X18202594Y-47004336D01*
X18204438Y-46995575D01*
X18211938Y-46990682D01*
X18214074Y-46990482D01*
X19000000Y-46989500D01*
X19785920Y-46990482D01*
G37*
%TD.AperFunction*%
%TD*%
%TA.AperFunction,Conductor*%
%TO.N,Board_14-Net-(J1-Pin_1)*%
G36*
X20906069Y-36060165D02*
G01*
X20913039Y-36065787D01*
X20913991Y-36074691D01*
X20913421Y-36076224D01*
X19503116Y-39183635D01*
X19496576Y-39189753D01*
X19492462Y-39190500D01*
X18507538Y-39190500D01*
X18499265Y-39187073D01*
X18496884Y-39183635D01*
X17086578Y-36076224D01*
X17086279Y-36067275D01*
X17092397Y-36060735D01*
X17093919Y-36060168D01*
X18996699Y-35500471D01*
X19003301Y-35500471D01*
X20906069Y-36060165D01*
G37*
%TD.AperFunction*%
%TD*%
%TA.AperFunction,Conductor*%
%TO.N,Board_13-Net-(J2-Pin_1)*%
G36*
X11500735Y-46813927D02*
G01*
X11503116Y-46817365D01*
X12913421Y-49924775D01*
X12913720Y-49933724D01*
X12907602Y-49940264D01*
X12906069Y-49940834D01*
X11003302Y-50500528D01*
X10996698Y-50500528D01*
X9093930Y-49940834D01*
X9086960Y-49935212D01*
X9086008Y-49926308D01*
X9086578Y-49924775D01*
X10496884Y-46817365D01*
X10503424Y-46811247D01*
X10507538Y-46810500D01*
X11492462Y-46810500D01*
X11500735Y-46813927D01*
G37*
%TD.AperFunction*%
%TD*%
%TA.AperFunction,Conductor*%
%TO.N,Board_13-Net-(J2-Pin_1)*%
G36*
X11785920Y-46990482D02*
G01*
X11794188Y-46993919D01*
X11797605Y-47002197D01*
X11797405Y-47004338D01*
X11501790Y-48580956D01*
X11496897Y-48588456D01*
X11490290Y-48590500D01*
X10509710Y-48590500D01*
X10501437Y-48587073D01*
X10498210Y-48580956D01*
X10202594Y-47004336D01*
X10204438Y-46995575D01*
X10211938Y-46990682D01*
X10214074Y-46990482D01*
X11000000Y-46989500D01*
X11785920Y-46990482D01*
G37*
%TD.AperFunction*%
%TD*%
%TA.AperFunction,Conductor*%
%TO.N,Board_13-Net-(J1-Pin_1)*%
G36*
X12906069Y-36060165D02*
G01*
X12913039Y-36065787D01*
X12913991Y-36074691D01*
X12913421Y-36076224D01*
X11503116Y-39183635D01*
X11496576Y-39189753D01*
X11492462Y-39190500D01*
X10507538Y-39190500D01*
X10499265Y-39187073D01*
X10496884Y-39183635D01*
X9086578Y-36076224D01*
X9086279Y-36067275D01*
X9092397Y-36060735D01*
X9093919Y-36060168D01*
X10996699Y-35500471D01*
X11003301Y-35500471D01*
X12906069Y-36060165D01*
G37*
%TD.AperFunction*%
%TD*%
%TA.AperFunction,Conductor*%
%TO.N,Board_12-Net-(J2-Pin_1)*%
G36*
X3785920Y-46990482D02*
G01*
X3794188Y-46993919D01*
X3797605Y-47002197D01*
X3797405Y-47004338D01*
X3501790Y-48580956D01*
X3496897Y-48588456D01*
X3490290Y-48590500D01*
X2509710Y-48590500D01*
X2501437Y-48587073D01*
X2498210Y-48580956D01*
X2202594Y-47004336D01*
X2204438Y-46995575D01*
X2211938Y-46990682D01*
X2214074Y-46990482D01*
X3000000Y-46989500D01*
X3785920Y-46990482D01*
G37*
%TD.AperFunction*%
%TD*%
%TA.AperFunction,Conductor*%
%TO.N,Board_12-Net-(J2-Pin_1)*%
G36*
X3500735Y-46813927D02*
G01*
X3503116Y-46817365D01*
X4913421Y-49924775D01*
X4913720Y-49933724D01*
X4907602Y-49940264D01*
X4906069Y-49940834D01*
X3003302Y-50500528D01*
X2996698Y-50500528D01*
X1093930Y-49940834D01*
X1086960Y-49935212D01*
X1086008Y-49926308D01*
X1086578Y-49924775D01*
X2496884Y-46817365D01*
X2503424Y-46811247D01*
X2507538Y-46810500D01*
X3492462Y-46810500D01*
X3500735Y-46813927D01*
G37*
%TD.AperFunction*%
%TD*%
%TA.AperFunction,Conductor*%
%TO.N,Board_12-Net-(J1-Pin_1)*%
G36*
X4906069Y-36060165D02*
G01*
X4913039Y-36065787D01*
X4913991Y-36074691D01*
X4913421Y-36076224D01*
X3503116Y-39183635D01*
X3496576Y-39189753D01*
X3492462Y-39190500D01*
X2507538Y-39190500D01*
X2499265Y-39187073D01*
X2496884Y-39183635D01*
X1086578Y-36076224D01*
X1086279Y-36067275D01*
X1092397Y-36060735D01*
X1093919Y-36060168D01*
X2996699Y-35500471D01*
X3003301Y-35500471D01*
X4906069Y-36060165D01*
G37*
%TD.AperFunction*%
%TD*%
%TA.AperFunction,Conductor*%
%TO.N,Board_11-Net-(J2-Pin_1)*%
G36*
X91785920Y-22990482D02*
G01*
X91794188Y-22993919D01*
X91797605Y-23002197D01*
X91797405Y-23004338D01*
X91501790Y-24580956D01*
X91496897Y-24588456D01*
X91490290Y-24590500D01*
X90509710Y-24590500D01*
X90501437Y-24587073D01*
X90498210Y-24580956D01*
X90202594Y-23004336D01*
X90204438Y-22995575D01*
X90211938Y-22990682D01*
X90214074Y-22990482D01*
X91000000Y-22989500D01*
X91785920Y-22990482D01*
G37*
%TD.AperFunction*%
%TD*%
%TA.AperFunction,Conductor*%
%TO.N,Board_11-Net-(J2-Pin_1)*%
G36*
X91500735Y-22813927D02*
G01*
X91503116Y-22817365D01*
X92913421Y-25924775D01*
X92913720Y-25933724D01*
X92907602Y-25940264D01*
X92906069Y-25940834D01*
X91003302Y-26500528D01*
X90996698Y-26500528D01*
X89093930Y-25940834D01*
X89086960Y-25935212D01*
X89086008Y-25926308D01*
X89086578Y-25924775D01*
X90496884Y-22817365D01*
X90503424Y-22811247D01*
X90507538Y-22810500D01*
X91492462Y-22810500D01*
X91500735Y-22813927D01*
G37*
%TD.AperFunction*%
%TD*%
%TA.AperFunction,Conductor*%
%TO.N,Board_11-Net-(J1-Pin_1)*%
G36*
X92906069Y-12060165D02*
G01*
X92913039Y-12065787D01*
X92913991Y-12074691D01*
X92913421Y-12076224D01*
X91503116Y-15183635D01*
X91496576Y-15189753D01*
X91492462Y-15190500D01*
X90507538Y-15190500D01*
X90499265Y-15187073D01*
X90496884Y-15183635D01*
X89086578Y-12076224D01*
X89086279Y-12067275D01*
X89092397Y-12060735D01*
X89093919Y-12060168D01*
X90996699Y-11500471D01*
X91003301Y-11500471D01*
X92906069Y-12060165D01*
G37*
%TD.AperFunction*%
%TD*%
%TA.AperFunction,Conductor*%
%TO.N,Board_10-Net-(J2-Pin_1)*%
G36*
X83785920Y-22990482D02*
G01*
X83794188Y-22993919D01*
X83797605Y-23002197D01*
X83797405Y-23004338D01*
X83501790Y-24580956D01*
X83496897Y-24588456D01*
X83490290Y-24590500D01*
X82509710Y-24590500D01*
X82501437Y-24587073D01*
X82498210Y-24580956D01*
X82202594Y-23004336D01*
X82204438Y-22995575D01*
X82211938Y-22990682D01*
X82214074Y-22990482D01*
X83000000Y-22989500D01*
X83785920Y-22990482D01*
G37*
%TD.AperFunction*%
%TD*%
%TA.AperFunction,Conductor*%
%TO.N,Board_10-Net-(J2-Pin_1)*%
G36*
X83500735Y-22813927D02*
G01*
X83503116Y-22817365D01*
X84913421Y-25924775D01*
X84913720Y-25933724D01*
X84907602Y-25940264D01*
X84906069Y-25940834D01*
X83003302Y-26500528D01*
X82996698Y-26500528D01*
X81093930Y-25940834D01*
X81086960Y-25935212D01*
X81086008Y-25926308D01*
X81086578Y-25924775D01*
X82496884Y-22817365D01*
X82503424Y-22811247D01*
X82507538Y-22810500D01*
X83492462Y-22810500D01*
X83500735Y-22813927D01*
G37*
%TD.AperFunction*%
%TD*%
%TA.AperFunction,Conductor*%
%TO.N,Board_10-Net-(J1-Pin_1)*%
G36*
X84906069Y-12060165D02*
G01*
X84913039Y-12065787D01*
X84913991Y-12074691D01*
X84913421Y-12076224D01*
X83503116Y-15183635D01*
X83496576Y-15189753D01*
X83492462Y-15190500D01*
X82507538Y-15190500D01*
X82499265Y-15187073D01*
X82496884Y-15183635D01*
X81086578Y-12076224D01*
X81086279Y-12067275D01*
X81092397Y-12060735D01*
X81093919Y-12060168D01*
X82996699Y-11500471D01*
X83003301Y-11500471D01*
X84906069Y-12060165D01*
G37*
%TD.AperFunction*%
%TD*%
%TA.AperFunction,Conductor*%
%TO.N,Board_9-Net-(J2-Pin_1)*%
G36*
X75785920Y-22990482D02*
G01*
X75794188Y-22993919D01*
X75797605Y-23002197D01*
X75797405Y-23004338D01*
X75501790Y-24580956D01*
X75496897Y-24588456D01*
X75490290Y-24590500D01*
X74509710Y-24590500D01*
X74501437Y-24587073D01*
X74498210Y-24580956D01*
X74202594Y-23004336D01*
X74204438Y-22995575D01*
X74211938Y-22990682D01*
X74214074Y-22990482D01*
X75000000Y-22989500D01*
X75785920Y-22990482D01*
G37*
%TD.AperFunction*%
%TD*%
%TA.AperFunction,Conductor*%
%TO.N,Board_9-Net-(J2-Pin_1)*%
G36*
X75500735Y-22813927D02*
G01*
X75503116Y-22817365D01*
X76913421Y-25924775D01*
X76913720Y-25933724D01*
X76907602Y-25940264D01*
X76906069Y-25940834D01*
X75003302Y-26500528D01*
X74996698Y-26500528D01*
X73093930Y-25940834D01*
X73086960Y-25935212D01*
X73086008Y-25926308D01*
X73086578Y-25924775D01*
X74496884Y-22817365D01*
X74503424Y-22811247D01*
X74507538Y-22810500D01*
X75492462Y-22810500D01*
X75500735Y-22813927D01*
G37*
%TD.AperFunction*%
%TD*%
%TA.AperFunction,Conductor*%
%TO.N,Board_9-Net-(J1-Pin_1)*%
G36*
X76906069Y-12060165D02*
G01*
X76913039Y-12065787D01*
X76913991Y-12074691D01*
X76913421Y-12076224D01*
X75503116Y-15183635D01*
X75496576Y-15189753D01*
X75492462Y-15190500D01*
X74507538Y-15190500D01*
X74499265Y-15187073D01*
X74496884Y-15183635D01*
X73086578Y-12076224D01*
X73086279Y-12067275D01*
X73092397Y-12060735D01*
X73093919Y-12060168D01*
X74996699Y-11500471D01*
X75003301Y-11500471D01*
X76906069Y-12060165D01*
G37*
%TD.AperFunction*%
%TD*%
%TA.AperFunction,Conductor*%
%TO.N,Board_8-Net-(J2-Pin_1)*%
G36*
X67500735Y-22813927D02*
G01*
X67503116Y-22817365D01*
X68913421Y-25924775D01*
X68913720Y-25933724D01*
X68907602Y-25940264D01*
X68906069Y-25940834D01*
X67003302Y-26500528D01*
X66996698Y-26500528D01*
X65093930Y-25940834D01*
X65086960Y-25935212D01*
X65086008Y-25926308D01*
X65086578Y-25924775D01*
X66496884Y-22817365D01*
X66503424Y-22811247D01*
X66507538Y-22810500D01*
X67492462Y-22810500D01*
X67500735Y-22813927D01*
G37*
%TD.AperFunction*%
%TD*%
%TA.AperFunction,Conductor*%
%TO.N,Board_8-Net-(J2-Pin_1)*%
G36*
X67785920Y-22990482D02*
G01*
X67794188Y-22993919D01*
X67797605Y-23002197D01*
X67797405Y-23004338D01*
X67501790Y-24580956D01*
X67496897Y-24588456D01*
X67490290Y-24590500D01*
X66509710Y-24590500D01*
X66501437Y-24587073D01*
X66498210Y-24580956D01*
X66202594Y-23004336D01*
X66204438Y-22995575D01*
X66211938Y-22990682D01*
X66214074Y-22990482D01*
X67000000Y-22989500D01*
X67785920Y-22990482D01*
G37*
%TD.AperFunction*%
%TD*%
%TA.AperFunction,Conductor*%
%TO.N,Board_8-Net-(J1-Pin_1)*%
G36*
X68906069Y-12060165D02*
G01*
X68913039Y-12065787D01*
X68913991Y-12074691D01*
X68913421Y-12076224D01*
X67503116Y-15183635D01*
X67496576Y-15189753D01*
X67492462Y-15190500D01*
X66507538Y-15190500D01*
X66499265Y-15187073D01*
X66496884Y-15183635D01*
X65086578Y-12076224D01*
X65086279Y-12067275D01*
X65092397Y-12060735D01*
X65093919Y-12060168D01*
X66996699Y-11500471D01*
X67003301Y-11500471D01*
X68906069Y-12060165D01*
G37*
%TD.AperFunction*%
%TD*%
%TA.AperFunction,Conductor*%
%TO.N,Board_7-Net-(J2-Pin_1)*%
G36*
X59785920Y-22990482D02*
G01*
X59794188Y-22993919D01*
X59797605Y-23002197D01*
X59797405Y-23004338D01*
X59501790Y-24580956D01*
X59496897Y-24588456D01*
X59490290Y-24590500D01*
X58509710Y-24590500D01*
X58501437Y-24587073D01*
X58498210Y-24580956D01*
X58202594Y-23004336D01*
X58204438Y-22995575D01*
X58211938Y-22990682D01*
X58214074Y-22990482D01*
X59000000Y-22989500D01*
X59785920Y-22990482D01*
G37*
%TD.AperFunction*%
%TD*%
%TA.AperFunction,Conductor*%
%TO.N,Board_7-Net-(J2-Pin_1)*%
G36*
X59500735Y-22813927D02*
G01*
X59503116Y-22817365D01*
X60913421Y-25924775D01*
X60913720Y-25933724D01*
X60907602Y-25940264D01*
X60906069Y-25940834D01*
X59003302Y-26500528D01*
X58996698Y-26500528D01*
X57093930Y-25940834D01*
X57086960Y-25935212D01*
X57086008Y-25926308D01*
X57086578Y-25924775D01*
X58496884Y-22817365D01*
X58503424Y-22811247D01*
X58507538Y-22810500D01*
X59492462Y-22810500D01*
X59500735Y-22813927D01*
G37*
%TD.AperFunction*%
%TD*%
%TA.AperFunction,Conductor*%
%TO.N,Board_7-Net-(J1-Pin_1)*%
G36*
X60906069Y-12060165D02*
G01*
X60913039Y-12065787D01*
X60913991Y-12074691D01*
X60913421Y-12076224D01*
X59503116Y-15183635D01*
X59496576Y-15189753D01*
X59492462Y-15190500D01*
X58507538Y-15190500D01*
X58499265Y-15187073D01*
X58496884Y-15183635D01*
X57086578Y-12076224D01*
X57086279Y-12067275D01*
X57092397Y-12060735D01*
X57093919Y-12060168D01*
X58996699Y-11500471D01*
X59003301Y-11500471D01*
X60906069Y-12060165D01*
G37*
%TD.AperFunction*%
%TD*%
%TA.AperFunction,Conductor*%
%TO.N,Board_6-Net-(J2-Pin_1)*%
G36*
X51500735Y-22813927D02*
G01*
X51503116Y-22817365D01*
X52913421Y-25924775D01*
X52913720Y-25933724D01*
X52907602Y-25940264D01*
X52906069Y-25940834D01*
X51003302Y-26500528D01*
X50996698Y-26500528D01*
X49093930Y-25940834D01*
X49086960Y-25935212D01*
X49086008Y-25926308D01*
X49086578Y-25924775D01*
X50496884Y-22817365D01*
X50503424Y-22811247D01*
X50507538Y-22810500D01*
X51492462Y-22810500D01*
X51500735Y-22813927D01*
G37*
%TD.AperFunction*%
%TD*%
%TA.AperFunction,Conductor*%
%TO.N,Board_6-Net-(J2-Pin_1)*%
G36*
X51785920Y-22990482D02*
G01*
X51794188Y-22993919D01*
X51797605Y-23002197D01*
X51797405Y-23004338D01*
X51501790Y-24580956D01*
X51496897Y-24588456D01*
X51490290Y-24590500D01*
X50509710Y-24590500D01*
X50501437Y-24587073D01*
X50498210Y-24580956D01*
X50202594Y-23004336D01*
X50204438Y-22995575D01*
X50211938Y-22990682D01*
X50214074Y-22990482D01*
X51000000Y-22989500D01*
X51785920Y-22990482D01*
G37*
%TD.AperFunction*%
%TD*%
%TA.AperFunction,Conductor*%
%TO.N,Board_6-Net-(J1-Pin_1)*%
G36*
X52906069Y-12060165D02*
G01*
X52913039Y-12065787D01*
X52913991Y-12074691D01*
X52913421Y-12076224D01*
X51503116Y-15183635D01*
X51496576Y-15189753D01*
X51492462Y-15190500D01*
X50507538Y-15190500D01*
X50499265Y-15187073D01*
X50496884Y-15183635D01*
X49086578Y-12076224D01*
X49086279Y-12067275D01*
X49092397Y-12060735D01*
X49093919Y-12060168D01*
X50996699Y-11500471D01*
X51003301Y-11500471D01*
X52906069Y-12060165D01*
G37*
%TD.AperFunction*%
%TD*%
%TA.AperFunction,Conductor*%
%TO.N,Board_5-Net-(J2-Pin_1)*%
G36*
X43500735Y-22813927D02*
G01*
X43503116Y-22817365D01*
X44913421Y-25924775D01*
X44913720Y-25933724D01*
X44907602Y-25940264D01*
X44906069Y-25940834D01*
X43003302Y-26500528D01*
X42996698Y-26500528D01*
X41093930Y-25940834D01*
X41086960Y-25935212D01*
X41086008Y-25926308D01*
X41086578Y-25924775D01*
X42496884Y-22817365D01*
X42503424Y-22811247D01*
X42507538Y-22810500D01*
X43492462Y-22810500D01*
X43500735Y-22813927D01*
G37*
%TD.AperFunction*%
%TD*%
%TA.AperFunction,Conductor*%
%TO.N,Board_5-Net-(J2-Pin_1)*%
G36*
X43785920Y-22990482D02*
G01*
X43794188Y-22993919D01*
X43797605Y-23002197D01*
X43797405Y-23004338D01*
X43501790Y-24580956D01*
X43496897Y-24588456D01*
X43490290Y-24590500D01*
X42509710Y-24590500D01*
X42501437Y-24587073D01*
X42498210Y-24580956D01*
X42202594Y-23004336D01*
X42204438Y-22995575D01*
X42211938Y-22990682D01*
X42214074Y-22990482D01*
X43000000Y-22989500D01*
X43785920Y-22990482D01*
G37*
%TD.AperFunction*%
%TD*%
%TA.AperFunction,Conductor*%
%TO.N,Board_5-Net-(J1-Pin_1)*%
G36*
X44906069Y-12060165D02*
G01*
X44913039Y-12065787D01*
X44913991Y-12074691D01*
X44913421Y-12076224D01*
X43503116Y-15183635D01*
X43496576Y-15189753D01*
X43492462Y-15190500D01*
X42507538Y-15190500D01*
X42499265Y-15187073D01*
X42496884Y-15183635D01*
X41086578Y-12076224D01*
X41086279Y-12067275D01*
X41092397Y-12060735D01*
X41093919Y-12060168D01*
X42996699Y-11500471D01*
X43003301Y-11500471D01*
X44906069Y-12060165D01*
G37*
%TD.AperFunction*%
%TD*%
%TA.AperFunction,Conductor*%
%TO.N,Board_4-Net-(J2-Pin_1)*%
G36*
X35500735Y-22813927D02*
G01*
X35503116Y-22817365D01*
X36913421Y-25924775D01*
X36913720Y-25933724D01*
X36907602Y-25940264D01*
X36906069Y-25940834D01*
X35003302Y-26500528D01*
X34996698Y-26500528D01*
X33093930Y-25940834D01*
X33086960Y-25935212D01*
X33086008Y-25926308D01*
X33086578Y-25924775D01*
X34496884Y-22817365D01*
X34503424Y-22811247D01*
X34507538Y-22810500D01*
X35492462Y-22810500D01*
X35500735Y-22813927D01*
G37*
%TD.AperFunction*%
%TD*%
%TA.AperFunction,Conductor*%
%TO.N,Board_4-Net-(J2-Pin_1)*%
G36*
X35785920Y-22990482D02*
G01*
X35794188Y-22993919D01*
X35797605Y-23002197D01*
X35797405Y-23004338D01*
X35501790Y-24580956D01*
X35496897Y-24588456D01*
X35490290Y-24590500D01*
X34509710Y-24590500D01*
X34501437Y-24587073D01*
X34498210Y-24580956D01*
X34202594Y-23004336D01*
X34204438Y-22995575D01*
X34211938Y-22990682D01*
X34214074Y-22990482D01*
X35000000Y-22989500D01*
X35785920Y-22990482D01*
G37*
%TD.AperFunction*%
%TD*%
%TA.AperFunction,Conductor*%
%TO.N,Board_4-Net-(J1-Pin_1)*%
G36*
X36906069Y-12060165D02*
G01*
X36913039Y-12065787D01*
X36913991Y-12074691D01*
X36913421Y-12076224D01*
X35503116Y-15183635D01*
X35496576Y-15189753D01*
X35492462Y-15190500D01*
X34507538Y-15190500D01*
X34499265Y-15187073D01*
X34496884Y-15183635D01*
X33086578Y-12076224D01*
X33086279Y-12067275D01*
X33092397Y-12060735D01*
X33093919Y-12060168D01*
X34996699Y-11500471D01*
X35003301Y-11500471D01*
X36906069Y-12060165D01*
G37*
%TD.AperFunction*%
%TD*%
%TA.AperFunction,Conductor*%
%TO.N,Board_3-Net-(J2-Pin_1)*%
G36*
X27785920Y-22990482D02*
G01*
X27794188Y-22993919D01*
X27797605Y-23002197D01*
X27797405Y-23004338D01*
X27501790Y-24580956D01*
X27496897Y-24588456D01*
X27490290Y-24590500D01*
X26509710Y-24590500D01*
X26501437Y-24587073D01*
X26498210Y-24580956D01*
X26202594Y-23004336D01*
X26204438Y-22995575D01*
X26211938Y-22990682D01*
X26214074Y-22990482D01*
X27000000Y-22989500D01*
X27785920Y-22990482D01*
G37*
%TD.AperFunction*%
%TD*%
%TA.AperFunction,Conductor*%
%TO.N,Board_3-Net-(J2-Pin_1)*%
G36*
X27500735Y-22813927D02*
G01*
X27503116Y-22817365D01*
X28913421Y-25924775D01*
X28913720Y-25933724D01*
X28907602Y-25940264D01*
X28906069Y-25940834D01*
X27003302Y-26500528D01*
X26996698Y-26500528D01*
X25093930Y-25940834D01*
X25086960Y-25935212D01*
X25086008Y-25926308D01*
X25086578Y-25924775D01*
X26496884Y-22817365D01*
X26503424Y-22811247D01*
X26507538Y-22810500D01*
X27492462Y-22810500D01*
X27500735Y-22813927D01*
G37*
%TD.AperFunction*%
%TD*%
%TA.AperFunction,Conductor*%
%TO.N,Board_3-Net-(J1-Pin_1)*%
G36*
X28906069Y-12060165D02*
G01*
X28913039Y-12065787D01*
X28913991Y-12074691D01*
X28913421Y-12076224D01*
X27503116Y-15183635D01*
X27496576Y-15189753D01*
X27492462Y-15190500D01*
X26507538Y-15190500D01*
X26499265Y-15187073D01*
X26496884Y-15183635D01*
X25086578Y-12076224D01*
X25086279Y-12067275D01*
X25092397Y-12060735D01*
X25093919Y-12060168D01*
X26996699Y-11500471D01*
X27003301Y-11500471D01*
X28906069Y-12060165D01*
G37*
%TD.AperFunction*%
%TD*%
%TA.AperFunction,Conductor*%
%TO.N,Board_2-Net-(J2-Pin_1)*%
G36*
X19500735Y-22813927D02*
G01*
X19503116Y-22817365D01*
X20913421Y-25924775D01*
X20913720Y-25933724D01*
X20907602Y-25940264D01*
X20906069Y-25940834D01*
X19003302Y-26500528D01*
X18996698Y-26500528D01*
X17093930Y-25940834D01*
X17086960Y-25935212D01*
X17086008Y-25926308D01*
X17086578Y-25924775D01*
X18496884Y-22817365D01*
X18503424Y-22811247D01*
X18507538Y-22810500D01*
X19492462Y-22810500D01*
X19500735Y-22813927D01*
G37*
%TD.AperFunction*%
%TD*%
%TA.AperFunction,Conductor*%
%TO.N,Board_2-Net-(J2-Pin_1)*%
G36*
X19785920Y-22990482D02*
G01*
X19794188Y-22993919D01*
X19797605Y-23002197D01*
X19797405Y-23004338D01*
X19501790Y-24580956D01*
X19496897Y-24588456D01*
X19490290Y-24590500D01*
X18509710Y-24590500D01*
X18501437Y-24587073D01*
X18498210Y-24580956D01*
X18202594Y-23004336D01*
X18204438Y-22995575D01*
X18211938Y-22990682D01*
X18214074Y-22990482D01*
X19000000Y-22989500D01*
X19785920Y-22990482D01*
G37*
%TD.AperFunction*%
%TD*%
%TA.AperFunction,Conductor*%
%TO.N,Board_2-Net-(J1-Pin_1)*%
G36*
X20906069Y-12060165D02*
G01*
X20913039Y-12065787D01*
X20913991Y-12074691D01*
X20913421Y-12076224D01*
X19503116Y-15183635D01*
X19496576Y-15189753D01*
X19492462Y-15190500D01*
X18507538Y-15190500D01*
X18499265Y-15187073D01*
X18496884Y-15183635D01*
X17086578Y-12076224D01*
X17086279Y-12067275D01*
X17092397Y-12060735D01*
X17093919Y-12060168D01*
X18996699Y-11500471D01*
X19003301Y-11500471D01*
X20906069Y-12060165D01*
G37*
%TD.AperFunction*%
%TD*%
%TA.AperFunction,Conductor*%
%TO.N,Board_1-Net-(J2-Pin_1)*%
G36*
X11785920Y-22990482D02*
G01*
X11794188Y-22993919D01*
X11797605Y-23002197D01*
X11797405Y-23004338D01*
X11501790Y-24580956D01*
X11496897Y-24588456D01*
X11490290Y-24590500D01*
X10509710Y-24590500D01*
X10501437Y-24587073D01*
X10498210Y-24580956D01*
X10202594Y-23004336D01*
X10204438Y-22995575D01*
X10211938Y-22990682D01*
X10214074Y-22990482D01*
X11000000Y-22989500D01*
X11785920Y-22990482D01*
G37*
%TD.AperFunction*%
%TD*%
%TA.AperFunction,Conductor*%
%TO.N,Board_1-Net-(J2-Pin_1)*%
G36*
X11500735Y-22813927D02*
G01*
X11503116Y-22817365D01*
X12913421Y-25924775D01*
X12913720Y-25933724D01*
X12907602Y-25940264D01*
X12906069Y-25940834D01*
X11003302Y-26500528D01*
X10996698Y-26500528D01*
X9093930Y-25940834D01*
X9086960Y-25935212D01*
X9086008Y-25926308D01*
X9086578Y-25924775D01*
X10496884Y-22817365D01*
X10503424Y-22811247D01*
X10507538Y-22810500D01*
X11492462Y-22810500D01*
X11500735Y-22813927D01*
G37*
%TD.AperFunction*%
%TD*%
%TA.AperFunction,Conductor*%
%TO.N,Board_1-Net-(J1-Pin_1)*%
G36*
X12906069Y-12060165D02*
G01*
X12913039Y-12065787D01*
X12913991Y-12074691D01*
X12913421Y-12076224D01*
X11503116Y-15183635D01*
X11496576Y-15189753D01*
X11492462Y-15190500D01*
X10507538Y-15190500D01*
X10499265Y-15187073D01*
X10496884Y-15183635D01*
X9086578Y-12076224D01*
X9086279Y-12067275D01*
X9092397Y-12060735D01*
X9093919Y-12060168D01*
X10996699Y-11500471D01*
X11003301Y-11500471D01*
X12906069Y-12060165D01*
G37*
%TD.AperFunction*%
%TD*%
%TA.AperFunction,Conductor*%
%TO.N,Board_0-Net-(J2-Pin_1)*%
G36*
X3500735Y-22813927D02*
G01*
X3503116Y-22817365D01*
X4913421Y-25924775D01*
X4913720Y-25933724D01*
X4907602Y-25940264D01*
X4906069Y-25940834D01*
X3003302Y-26500528D01*
X2996698Y-26500528D01*
X1093930Y-25940834D01*
X1086960Y-25935212D01*
X1086008Y-25926308D01*
X1086578Y-25924775D01*
X2496884Y-22817365D01*
X2503424Y-22811247D01*
X2507538Y-22810500D01*
X3492462Y-22810500D01*
X3500735Y-22813927D01*
G37*
%TD.AperFunction*%
%TD*%
%TA.AperFunction,Conductor*%
%TO.N,Board_0-Net-(J2-Pin_1)*%
G36*
X3785920Y-22990482D02*
G01*
X3794188Y-22993919D01*
X3797605Y-23002197D01*
X3797405Y-23004338D01*
X3501790Y-24580956D01*
X3496897Y-24588456D01*
X3490290Y-24590500D01*
X2509710Y-24590500D01*
X2501437Y-24587073D01*
X2498210Y-24580956D01*
X2202594Y-23004336D01*
X2204438Y-22995575D01*
X2211938Y-22990682D01*
X2214074Y-22990482D01*
X3000000Y-22989500D01*
X3785920Y-22990482D01*
G37*
%TD.AperFunction*%
%TD*%
%TA.AperFunction,Conductor*%
%TO.N,Board_0-Net-(J1-Pin_1)*%
G36*
X4906069Y-12060165D02*
G01*
X4913039Y-12065787D01*
X4913991Y-12074691D01*
X4913421Y-12076224D01*
X3503116Y-15183635D01*
X3496576Y-15189753D01*
X3492462Y-15190500D01*
X2507538Y-15190500D01*
X2499265Y-15187073D01*
X2496884Y-15183635D01*
X1086578Y-12076224D01*
X1086279Y-12067275D01*
X1092397Y-12060735D01*
X1093919Y-12060168D01*
X2996699Y-11500471D01*
X3003301Y-11500471D01*
X4906069Y-12060165D01*
G37*
%TD.AperFunction*%
%TD*%
M02*
