M48
; DRILL file {KiCad 8.0.2} date 2024-06-26T22:47:50+0700
; FORMAT={-:-/ absolute / inch / decimal}
; #@! TF.CreationDate,2024-06-26T22:47:50+07:00
; #@! TF.GenerationSoftware,Kicad,Pcbnew,8.0.2
; #@! TF.FileFunction,Plated,1,2,PTH
FMAT,2
INCH
; #@! TA.AperFunction,Plated,PTH,ComponentDrill
T1C0.0315
; #@! TA.AperFunction,Plated,PTH,ComponentDrill
T2C0.0984
%
G90
G05
T1
X0.1181Y-0.5902
X0.1181Y-0.9051
X0.1181Y-1.5351
X0.1181Y-1.85
X0.1181Y-2.4799
X0.1181Y-2.7949
X0.4331Y-0.5902
X0.4331Y-0.9051
X0.4331Y-1.5351
X0.4331Y-1.85
X0.4331Y-2.4799
X0.4331Y-2.7949
X0.748Y-0.5902
X0.748Y-0.9051
X0.748Y-1.5351
X0.748Y-1.85
X0.748Y-2.4799
X0.748Y-2.7949
X1.063Y-0.5902
X1.063Y-0.9051
X1.063Y-1.5351
X1.063Y-1.85
X1.063Y-2.4799
X1.063Y-2.7949
X1.378Y-0.5902
X1.378Y-0.9051
X1.378Y-1.5351
X1.378Y-1.85
X1.378Y-2.4799
X1.378Y-2.7949
X1.6929Y-0.5902
X1.6929Y-0.9051
X1.6929Y-1.5351
X1.6929Y-1.85
X1.6929Y-2.4799
X1.6929Y-2.7949
X2.0079Y-0.5902
X2.0079Y-0.9051
X2.0079Y-1.5351
X2.0079Y-1.85
X2.0079Y-2.4799
X2.0079Y-2.7949
X2.3228Y-0.5902
X2.3228Y-0.9051
X2.3228Y-1.5351
X2.3228Y-1.85
X2.3228Y-2.4799
X2.3228Y-2.7949
X2.6378Y-0.5902
X2.6378Y-0.9051
X2.6378Y-1.5351
X2.6378Y-1.85
X2.6378Y-2.4799
X2.6378Y-2.7949
X2.9528Y-0.5902
X2.9528Y-0.9051
X2.9528Y-1.5351
X2.9528Y-1.85
X2.9528Y-2.4799
X2.9528Y-2.7949
X3.2677Y-0.5902
X3.2677Y-0.9051
X3.2677Y-1.5351
X3.2677Y-1.85
X3.2677Y-2.4799
X3.2677Y-2.7949
X3.5827Y-0.5902
X3.5827Y-0.9051
X3.5827Y-1.5351
X3.5827Y-1.85
X3.5827Y-2.4799
X3.5827Y-2.7949
T2
X0.1181Y-0.4528
X0.1181Y-1.0433
X0.1181Y-1.3977
X0.1181Y-1.9882
X0.1181Y-2.3425
X0.1181Y-2.9331
X0.4331Y-0.4528
X0.4331Y-1.0433
X0.4331Y-1.3977
X0.4331Y-1.9882
X0.4331Y-2.3425
X0.4331Y-2.9331
X0.748Y-0.4528
X0.748Y-1.0433
X0.748Y-1.3977
X0.748Y-1.9882
X0.748Y-2.3425
X0.748Y-2.9331
X1.063Y-0.4528
X1.063Y-1.0433
X1.063Y-1.3977
X1.063Y-1.9882
X1.063Y-2.3425
X1.063Y-2.9331
X1.378Y-0.4528
X1.378Y-1.0433
X1.378Y-1.3977
X1.378Y-1.9882
X1.378Y-2.3425
X1.378Y-2.9331
X1.6929Y-0.4528
X1.6929Y-1.0433
X1.6929Y-1.3977
X1.6929Y-1.9882
X1.6929Y-2.3425
X1.6929Y-2.9331
X2.0079Y-0.4528
X2.0079Y-1.0433
X2.0079Y-1.3977
X2.0079Y-1.9882
X2.0079Y-2.3425
X2.0079Y-2.9331
X2.3228Y-0.4528
X2.3228Y-1.0433
X2.3228Y-1.3977
X2.3228Y-1.9882
X2.3228Y-2.3425
X2.3228Y-2.9331
X2.6378Y-0.4528
X2.6378Y-1.0433
X2.6378Y-1.3977
X2.6378Y-1.9882
X2.6378Y-2.3425
X2.6378Y-2.9331
X2.9528Y-0.4528
X2.9528Y-1.0433
X2.9528Y-1.3977
X2.9528Y-1.9882
X2.9528Y-2.3425
X2.9528Y-2.9331
X3.2677Y-0.4528
X3.2677Y-1.0433
X3.2677Y-1.3977
X3.2677Y-1.9882
X3.2677Y-2.3425
X3.2677Y-2.9331
X3.5827Y-0.4528
X3.5827Y-1.0433
X3.5827Y-1.3977
X3.5827Y-1.9882
X3.5827Y-2.3425
X3.5827Y-2.9331
M30
